<svg xmlns="http://www.w3.org/2000/svg" viewBox="0 0 183.02 34.71"><defs><style>.a{fill:#fff;}</style></defs><title>Untitled-3</title><path class="a" d="M15,23.87a4,4,0,0,0,2.1-.71,1.8,1.8,0,0,0,.73-1.51V20a2.22,2.22,0,0,0-.87-1.94,5.08,5.08,0,0,0-2.82-.61H0V30.66H13.08A8.09,8.09,0,0,0,16.72,30a2.06,2.06,0,0,0,1.2-1.94V26.4a2.16,2.16,0,0,0-.77-1.72A4,4,0,0,0,15,23.87ZM3.77,19.63H12.5a3.15,3.15,0,0,1,1.38.22.79.79,0,0,1,.38.73v1.25a.78.78,0,0,1-.38.73,3.18,3.18,0,0,1-1.38.21H3.77Zm10.58,7.48A1,1,0,0,1,14,28a2.86,2.86,0,0,1-1.47.26H3.77V24.94H12.5a2.89,2.89,0,0,1,1.47.25,1,1,0,0,1,.38.92Z"/><path class="a" d="M40.18,28.18H29.27V17.49H25.44V27.54A2.93,2.93,0,0,0,26.29,30a5.57,5.57,0,0,0,3.23.66h10.4A5.58,5.58,0,0,0,43.16,30,3,3,0,0,0,44,27.54v-10H40.18Z"/><path class="a" d="M69.55,23.28a5.64,5.64,0,0,0-3.26-.66H56V19.8H66.81v1.49l3.37-.63v-.28a2.26,2.26,0,0,0-1.66-2.62c-.73.06-1.19,0-1.4-.23-.31,0-.65,0-1,0H56.76a5.57,5.57,0,0,0-3.23.66,3,3,0,0,0-.84,2.46v1.45a3,3,0,0,0,.84,2.46,5.57,5.57,0,0,0,3.23.66H67v3H55.39V26.62L52,27.18v.36A3,3,0,0,0,52.87,30a5.64,5.64,0,0,0,3.26.66H66.29A5.64,5.64,0,0,0,69.55,30a3,3,0,0,0,.85-2.46v-1.8A3,3,0,0,0,69.55,23.28Z"/><path class="a" d="M106.82,24.4c0,.17,0,.41,0,.71s.06.83.13,1.57a9.86,9.86,0,0,0-.83-.7c-.3-.23-.65-.47-1-.73L93.53,17.49H90.91V30.66h3.44V23.54c0-.26,0-.57,0-.94s-.06-.74-.12-1.15a6.1,6.1,0,0,0,.61.51c.22.17.47.36.76.56l12.09,8.14h2.61V17.49h-3.44Z"/><polygon class="a" points="122.61 24.91 130.21 24.91 130.21 22.67 122.61 22.67 122.61 19.73 135.62 19.73 135.62 17.49 118.78 17.49 118.78 30.66 135.78 30.66 135.78 28.18 122.61 28.18 122.61 24.91"/><path class="a" d="M172.45,23.28a5.64,5.64,0,0,0-3.26-.66H158.93V19.8h10.78v1.49l3.37-.63v-.28a2.58,2.58,0,0,0-.88-2.25,5.68,5.68,0,0,0-3.19-.64h-9.35a5.57,5.57,0,0,0-3.23.66,3,3,0,0,0-.84,2.46v1.45a3,3,0,0,0,.84,2.46,5.57,5.57,0,0,0,3.23.66h10.26v3H158.29V26.62l-3.37.56v.36a5.18,5.18,0,0,0,.05.81,2.44,2.44,0,0,0,.79,1.65l0,0a5.81,5.81,0,0,0,3.23.64h10.16a5.64,5.64,0,0,0,3.26-.66,3,3,0,0,0,.85-2.46v-1.8A3,3,0,0,0,172.45,23.28Z"/><path class="a" d="M173.29,13.32a.36.36,0,0,0-.4.33.35.35,0,0,0,.39.34h0a.36.36,0,0,0,.41-.34A.36.36,0,0,0,173.29,13.32Z"/><rect class="a" x="172.98" y="14.51" width="0.62" height="2.85"/><path class="a" d="M176.56,14.45a1.33,1.33,0,0,0-1.14.53h0l0-.47h-.55c0,.24,0,.48,0,.78v2.08h.62V15.65a.93.93,0,0,1,0-.25.92.92,0,0,1,.84-.53c.59,0,.79.39.79.85v1.65h.63V15.66A1.13,1.13,0,0,0,176.56,14.45Z"/><path class="a" d="M180.59,14.86a1.68,1.68,0,0,1,.72.14l.14-.4a2.42,2.42,0,0,0-.86-.15c-1.12,0-1.84.64-1.84,1.52a1.5,1.5,0,0,0,1.7,1.46,3.06,3.06,0,0,0,1-.16l-.11-.39a2.22,2.22,0,0,1-.76.13A1.07,1.07,0,0,1,179.38,16,1.09,1.09,0,0,1,180.59,14.86Z"/><path class="a" d="M182.6,16.69a.39.39,0,0,0-.43.37.38.38,0,0,0,.42.37h0a.39.39,0,0,0,.43-.37A.38.38,0,0,0,182.6,16.69Z"/><path class="a" d="M155.76,30a2.44,2.44,0,0,1-.79-1.65c-4.17,2.72-7.05,1.76-8.05-.87-.48-1.24-1.67-6.61-2.83-12.07,6-.81,8.76-.89,8.76-.89l-.68-2.18a76.87,76.87,0,0,1-8.37,1.72c-1.26-6-2.4-11.73-2.4-11.73L135,6.7l1.77,8.24c-3.38.34-5.11.38-5.11.38l.68,2.07s1.71-.38,4.76-.91l2.56,11.92c.74,3,2.31,5.9,7.8,5.31A16,16,0,0,0,155.8,30Z"/><path class="a" d="M84.54,31.11s-.92-3.24-2.3-9.32-1.83-8.09-2-8.59-1.12-.36-2,0S73,15.29,70,16.18s-3.11,1.09-2.93,1.33l0,0c.21.23.67.29,1.4.23.51,0,1.15-.12,1.94-.25,2-.33,2.92-.54,2.92-.54a70,70,0,0,1,2.54,8.71c1.3,5.55,1.18,6.5,1.18,6.5s-2.54.71-3.87,1.27-1.65,1.59.21,1.15,10-1.74,13.28-2.1,3.72-.35,3.55-.85S86.43,31.06,84.54,31.11Z"/><ellipse class="a" cx="73.63" cy="3.51" rx="4.35" ry="3.51"/></svg>