<svg xmlns="http://www.w3.org/2000/svg" viewBox="0 0 168.61 41.71"><defs><style>.a{fill:#fff;}</style></defs><title>Untitled-3</title><path class="a" d="M45.12,0c-.16,3-.31,6-.47,9L43,8c-.2-.11-.29-.11-.39.13-1.7,4.11-3.65,8.1-5.59,12.1-1.36,2.81-2.61,5.67-4.11,8.41a36.55,36.55,0,0,1-6.88,9,13.3,13.3,0,0,1-10.73,4,14.77,14.77,0,0,1-9.87-5A21.48,21.48,0,0,1,.31,25.17,22,22,0,0,1,0,20.51a14.19,14.19,0,0,1,4.13-9.17,19.43,19.43,0,0,1,11-6,9.91,9.91,0,0,1,2.72-.14,2.55,2.55,0,0,1,1.7.84,10.58,10.58,0,0,1,2,3.48c.13.33.24.67.4,1.11l-1.72-.95a18.18,18.18,0,0,0-4.71-2A7.25,7.25,0,0,0,7.15,12,17.57,17.57,0,0,0,6.05,17a19.32,19.32,0,0,0,.63,7.75,24.55,24.55,0,0,0,5.09,9.4,9.49,9.49,0,0,0,3.29,2.31,7,7,0,0,0,4.86-.07c2.43-.72,4.16-2.39,5.8-4.24,2.92-3.29,4.83-7.18,6.74-11.07,2.38-4.85,4.73-9.71,7.24-14.49.15-.27.12-.39-.16-.52-.46-.23-.9-.48-1.35-.72-.16-.08-.22-.15,0-.28Z"/><path class="a" d="M24.91,32.1l.21-3.59c.15-2.53.31-5.07.46-7.6q.38-6,.74-12a.43.43,0,0,1,.27-.4C28,7.78,29.41,7,30.78,6.22c.19-.12.29-.14.39.11,1.12,2.78,2.33,5.52,3.42,8.31a1.24,1.24,0,0,1-.08,1.15c-.61,1.12-1.16,2.26-1.74,3.39,0,.07-.05.16-.2.21l-2.12-4.87c-.15.05-.1.16-.1.24-.1,2.39-.17,4.77-.29,7.16a20,20,0,0,1-.28,2.67,6.28,6.28,0,0,1-1.06,2.63C27.54,28.9,26.27,30.52,24.91,32.1Z"/><path class="a" d="M37.66,20.32c3,6.31,6.15,12.54,8.79,19a14.47,14.47,0,0,1-1.88-.13c-.68-.06-1.35-.15-2-.19a3.6,3.6,0,0,1-2.91-1.65,12.5,12.5,0,0,1-1.34-2.84c-1-2.87-2.19-5.72-3.06-8.66a1.11,1.11,0,0,1,0-.82c.73-1.48,1.44-3,2.16-4.47C37.5,20.5,37.52,20.38,37.66,20.32Z"/><path class="a" d="M66.42,20a12.34,12.34,0,0,1-4.4.73q-8.09,0-8.08-7.81,0-7.39,8.08-7.4a12.34,12.34,0,0,1,4.4.74V8.72a10.42,10.42,0,0,0-4.19-.84q-5.41,0-5.41,5,0,5.4,5.41,5.4a10.42,10.42,0,0,0,4.19-.84Z"/><path class="a" d="M69,20.58v-15h2.78v6.18h7.4V5.58H82v15H79.22v-6.4h-7.4v6.4Z"/><path class="a" d="M87.93,5.58v15H85.15v-15Z"/><path class="a" d="M93.85,5.58V18.16h6v2.42H91.07v-15Z"/><path class="a" d="M102.43,20.58v-15h5.88q7.44,0,7.45,7.09,0,7.91-7.45,7.91Zm5.88-2.42q4.66,0,4.67-5.49Q113,8,108.31,8h-3.1V18.16Z"/><path class="a" d="M118.12,20.56v-15h6.81q4.6,0,4.6,4,0,2.72-3.58,4.5l4.75,6.49h-3.5L122.64,14V12.77q4-.67,4-3.09c0-1.11-.62-1.66-1.86-1.66H121V20.56Z"/><path class="a" d="M142.28,5.58V8h-7.51v3.77h7.16v2.49h-7.19v3.93h7.69v2.42H132v-15Z"/><path class="a" d="M144.74,20V17.43a14.51,14.51,0,0,0,5.1.84q3.45,0,3.45-2.31c0-1.12-.71-1.68-2.12-1.68h-2.35q-4.6,0-4.61-4.19,0-4.62,6.56-4.62a15.27,15.27,0,0,1,4.77.74V8.72a13.53,13.53,0,0,0-4.77-.84c-2.52,0-3.78.74-3.78,2.21,0,1.12.61,1.67,1.83,1.67h2.35c3.26,0,4.9,1.4,4.9,4.2q0,4.72-6.23,4.72A16.4,16.4,0,0,1,144.74,20Z"/><path class="a" d="M157.12,20V17.43a14.49,14.49,0,0,0,5.09.84c2.3,0,3.46-.77,3.46-2.31,0-1.12-.71-1.68-2.12-1.68H161.2q-4.6,0-4.61-4.19,0-4.62,6.56-4.62a15.27,15.27,0,0,1,4.77.74V8.72a13.53,13.53,0,0,0-4.77-.84c-2.52,0-3.78.74-3.78,2.21,0,1.12.61,1.67,1.83,1.67h2.35c3.26,0,4.9,1.4,4.9,4.2q0,4.72-6.24,4.72A16.38,16.38,0,0,1,157.12,20Z"/><path class="a" d="M54.94,38.29h-1l5.78-12.77h1.11l5.81,12.77H65.52L63.63,34H57.9l.28-.8h5.1l-3.06-7Z"/><path class="a" d="M86.43,37.79a10.08,10.08,0,0,1-3.42.59q-6.86,0-6.85-6.65,0-6.3,6.7-6.3a12,12,0,0,1,3.57.54v.8a11.45,11.45,0,0,0-3.4-.53q-5.93,0-5.93,5.49,0,5.85,5.76,5.85a10.26,10.26,0,0,0,2.63-.4V32.49h.94Z"/><path class="a" d="M105.76,25.52v.81H98.32v5.08h7.14v.81H98.32v5.27h7.57v.8H97.38V25.52Z"/><path class="a" d="M116.75,38.29V25.52H118l8.53,11.18V25.52h.85V38.29h-.76l-9-11.71V38.29Z"/><path class="a" d="M148.24,37.84a12.09,12.09,0,0,1-3.58.54q-6.69,0-6.69-6.65,0-6.3,6.69-6.3a12.09,12.09,0,0,1,3.58.54v.8a11.5,11.5,0,0,0-3.4-.53c-4,0-5.93,1.83-5.93,5.49,0,3.9,2,5.85,5.93,5.85a11.52,11.52,0,0,0,3.4-.54Z"/><path class="a" d="M158.07,25.52h1.12l4.13,7.41,4.26-7.41h1l-4.79,8.31v4.46h-.94V33.83Z"/></svg>