<svg xmlns="http://www.w3.org/2000/svg" viewBox="0 0 565.37 413.73"><defs><style>.a{fill:#cb8c84;}.b{fill:#eebeb3;}.c{fill:#e0ada5;}.d{fill:#eacbc6;}.e{fill:#553f37;}.f{fill:#db9c94;}.g{fill:#fff;}</style></defs><title>Untitled-3</title><path class="a" d="M131.08,403c-5.84,0-13-6-16.39-9.16-.43,1.37-.86,2.51-1.08,3.07l-1.42,3.64-3.84-.71c-.54-.1-5.42-1.12-10.42-6.12-5.22-5.22-2.09-10.64-.91-12.68.15-.27.53-.93.66-1.24a8.2,8.2,0,0,0-1.55-4.95A18.47,18.47,0,0,1,94,370.09a22.92,22.92,0,0,0-2.71-5.92c-2.38-3.59-3.93-7.67-5.72-12.39-.81-2.12-1.61-4.25-2.55-6.5-3-7.07-6.34-12.34-9.5-14.85a19.51,19.51,0,0,1-4.47-5.11,29,29,0,0,1-6,3.16c-1.41.47-3.37,2.11-5.4,4.51a17.1,17.1,0,0,0,.67,4.29l.16.71c.56,2.5.51,6.8.45,11.35,0,2.28,0,4.61,0,6.42.14,4.49.61,6.61,3.22,11.15,2.48,4.29,5.22,6.31,10.43,9.22a17.4,17.4,0,0,1,8.78,12.61l.52,5.26-5.29-.08c-1.32,0-13.05-.2-19.69-.88a40.67,40.67,0,0,1-12.47-3.13l-.27-.14-.25-.16a28.33,28.33,0,0,1-4.63-3.75c-.64-.7-1.33-1.53-2.48-2.91-.81-1-1.85-2.24-3.28-3.93A25,25,0,0,1,28,363.66c0-1.33-.52-4.6-1-7.77s-1.11-7.06-1.51-10.83c-.6-5.5-.6-14.5-.6-21.74,0-3.65,0-6.8-.07-9a9.81,9.81,0,0,0-1.32-5.07A19.26,19.26,0,0,1,21.25,302c-.84-7.79,7.94-11.81,13.9-14.6a28.86,28.86,0,0,0,4-2.09c1.66-1.29,4.22-3,6.4-4.63-1.09-1.43-2.45-3.14-3.69-4.54l-.1-.12a66.81,66.81,0,0,1-5.23-6.35L34.23,266l3.32-2.64a146.85,146.85,0,0,1,49.94-25.85c17.81-5.28,34.84-8,50.61-8,3.64,0,7.16.14,10.76.42l5.18.42-.91,5.12c-3.56,20-16.39,47.87-26.54,67.72-1.85,3.61-7.13,11.32-9.64,14.94.32,4,.6,10.77-.7,14.51-.41,1.17.15,6.85,4.48,16.89,1.07,2.47,2,4.82,2.85,7.1,1.75,4.54,3.41,8.83,5.81,12.49,3.73,5.67,5.52,8.06,11,12.61,5,4.14,12.21,6.17,12.51,6.25l3.84,1-.64,6.87-.94,7Z"/><path class="b" d="M560.3,97c-6.16-7.52-10.54-11.07-13.61-9.3C545,88.6,545,92.33,545,92.33a59.92,59.92,0,0,1-7.66,2.13c-2.76.43-14,2.55-19.57,3.83s-10.43,2.55-16.6,1.28-15.32-5.64-21.07-5.7-12.76-.47-18.72-3S445.19,83,439.87,83A47,47,0,0,0,428,85.1S415.82,73.39,408.8,70.63s-14.47-3.41-18.3-2.77-1.06,5.43-1.06,5.43-15.53,1.38-26.6,4.79C355.5,80.33,348.8,82,341,85a618.51,618.51,0,0,1,35.7,63.71c11.92-1.19,54.79-5.18,92.54-4.7,25.29.31,48.15,8.62,63.7,16.08a21.23,21.23,0,0,0,4.07-4.6c2.74-4.45,5.1-5.3,9.65-10.26S554,132.53,557.22,125s6.16-9.92,7.36-12.65S566.46,104.48,560.3,97Z"/><path class="c" d="M248,212.59c-4.67.44-9.75.62-15,.62-23.54,0-50.71-3.69-61.29-5.28a382.71,382.71,0,0,1-13.76,52.91c9.71,5,40.82,18.65,85.8,16.14,46.11-2.58,78.05-16.13,87.36-20.55a367.66,367.66,0,0,0-13.93-64.15C305.09,197.42,273,210.26,248,212.59Z"/><path class="a" d="M332.11,266.17c-12.6,5.68-43.75,17.58-87.91,20.05q-6,.33-11.66.33c-39.71,0-67.08-11.48-77.77-16.88-10.26,27.81-21.16,46.49-26.87,55.34,7.34,4.42,16.53,12.62,27.88,15.27,20.52,4.79,60.72,12,89.45,9.78A146.91,146.91,0,0,0,303,333.13c8.9-4.62,18.36-9.54,26.06-13.65l3.44-1.86C333.31,309.53,334.48,291.36,332.11,266.17Z"/><path class="d" d="M159.7,220.06c1.32-5.85,2.55-11.9,3.65-18.19,6.85-39.29,8.51-69.26,8.43-89.49a47.2,47.2,0,0,0-6.19-.47c-8.08,0-27.45-3-36.81-2.13S95.16,118.72,78.56,124,49.2,136.38,39.2,140.21s-17.88,24.26-17.88,24.26-9,1.77-12.59,7.27-1.24,15.92-1.87,24.64S0,215.88,0,215.88s12-10.35,12.39-18.43-.22-18.3,2.34-20.86,4.42-1.47,4.42-1.47-3.15,13.6-2.93,25.94,0,27.24,7.45,42.35c2.73,5.54,4.82,9.84,6.55,13.25,10.66-8.39,31.7-23.21,55.13-30.16C116.35,217.3,148.4,219,159.7,220.06Z"/><path class="b" d="M173.26,198.8c12.82,1.89,49.75,6.81,73.83,4.57s56.3-15.3,67.19-20c-10.91-33.23-21.9-57.72-30.53-74.39-7.19,3.13-15.58,6.77-22.62,8.42a142.36,142.36,0,0,1-54.26,1.49c-11.3-2-19.45-3.68-25.79-4.92C181.06,133.8,179.4,162.1,173.26,198.8Z"/><path class="e" d="M40.81,274.89a51.51,51.51,0,0,1-4.34-5.33l-2.24-3.51,3.26-2.6c1.54-1.22,3.23-2.51,5.08-3.85L48,267.09l-1,.77.82.94Z"/><path class="e" d="M49.75,289l-5.46-7.48,1.24-.91c-.27-.36-.56-.74-.86-1.12l7.3-5.69c2.13,2.73,3.82,5.14,3.82,5.14l2.59,3.7-3.62,2.68S52.41,287.08,49.75,289Z"/><path class="e" d="M63.83,393.53c-2.5-.13-4.93-.14-6.89-.34a45.86,45.86,0,0,1-6.81-1.36L52.39,383a38.59,38.59,0,0,0,5.49,1c1.82.18,4.08.33,6.4.44Zm-21.2-4.85A23.8,23.8,0,0,1,39.35,386c-.6-.64-1.3-1.48-2.48-2.91-.81-1-1.6-2.09-3-3.79-.22-.27-.61-.73-.82-1l7.27-5.58.38.47c1.45,1.72,2.51,3,3.33,4,1,1.22,1.61,2,2.12,2.5a15.15,15.15,0,0,0,1.93,1.62ZM29.31,371.26A25,25,0,0,1,28,363.84a58.4,58.4,0,0,0-.72-6.06l9.13-1.42a55,55,0,0,1,.85,7.48,15.66,15.66,0,0,0,.78,4.57Zm-3-19.91c-.29-2-.59-4.09-.81-6.16-.21-1.89-.35-4.25-.45-7.22l9.26-.3c.08,2.7.22,4.89.39,6.53.21,1.95.48,3.91.76,5.81Zm-1.38-20c0-2.51,0-5,0-7.43v-5.51l9.26-.06V324c0,2.36,0,4.87,0,7.34Zm-.18-18.74a9.51,9.51,0,0,0-1.26-3.38A19.18,19.18,0,0,1,21.24,302c0-.32,0-.62,0-.92a8.89,8.89,0,0,1,.47-2.83l8.77,3a.33.33,0,0,0,0-.14,9.92,9.92,0,0,0,1.31,4,18.67,18.67,0,0,1,2.09,6.19ZM32.92,299l-5.07-7.77a62.34,62.34,0,0,1,7.48-3.92,28,28,0,0,0,3.21-1.67l.64-.36,5.29,7.59-.38.27a32.51,32.51,0,0,1-4.84,2.56A55.7,55.7,0,0,0,32.92,299Z"/><path class="e" d="M82,394l-5.2-.1s-2.68,0-6.24-.13l.21-7.24v0h0l.07-2,2.43.07,4.86-3.75a15.6,15.6,0,0,1,3.34,8Z"/><path class="e" d="M67.53,384.11c-4.24-2.41-7.67-4.75-10.59-8.33l7.29-5.94c1.86,2.11,3.92,3.74,8,6.05Zm-14.28-14a27.4,27.4,0,0,1-3.53-13.32l9.29-.37a18.81,18.81,0,0,0,2.5,9.28ZM59,350.69l-9.29-.1v-1.3c0-1.29,0-2.58,0-3.81a30.79,30.79,0,0,0-.26-5.37l9-2.35.08.37a36.14,36.14,0,0,1,.45,7.33c0,1.26,0,2.42,0,3.74ZM57.69,333.2l-9.26-.45a9.11,9.11,0,0,1,2-5.5,25.58,25.58,0,0,1,8.26-7l4,8.36a17.16,17.16,0,0,0-5,4.34A1.22,1.22,0,0,0,57.69,333.2Zm0-.32h0Z"/><path class="e" d="M69.85,326.52c-.28-.4-.55-.8-.79-1.2l-.68.43-5-7.81c2.41-1.53,4.75-3.29,4.77-3.31l5.54-4.19,1.73,6.73h0a15,15,0,0,0,2,4Z"/><path class="e" d="M95.23,389.08A11.82,11.82,0,0,1,95,387a11.55,11.55,0,0,1,2-5.95c.26-.44.57-1.06.7-1.29a12.35,12.35,0,0,0-.23-2.06l9-2.23a19.08,19.08,0,0,1,.55,4.69,11.32,11.32,0,0,1-1.92,5.7,9.29,9.29,0,0,0-.8,1.56Zm-.08-16a21.37,21.37,0,0,1-1.1-2.86,23.39,23.39,0,0,0-2.73-6c-.37-.56-.72-1.12-1.06-1.73l8-4.61c.24.41.49.81.74,1.2a31.82,31.82,0,0,1,3.8,8.15,21,21,0,0,0,.73,2Zm-7.77-16.59c-.61-1.44-1.2-3-1.81-4.6-.77-2-1.63-4.22-2.54-6.52l8.51-3.7.08.21c1,2.3,1.83,4.58,2.64,6.72.58,1.54,1.14,3,1.7,4.4Zm-6.8-16.41a35.93,35.93,0,0,0-6-8.67l6.4-6.66a42.9,42.9,0,0,1,7.79,11.08Z"/><path class="e" d="M112.21,400.55l-3.77-.7a18.62,18.62,0,0,1-7.37-3.46l5.4-7.45c0-.17.08-.34.11-.51l9.06,1.93a48.53,48.53,0,0,1-2,6.62Z"/><path class="e" d="M139.11,403l-7.91.09a13.41,13.41,0,0,1-5.71-1.52l3.92-8.33a5.14,5.14,0,0,0,1.79.6h7.91Zm-19.46-5a48.62,48.62,0,0,1-7-6.24,10.54,10.54,0,0,0-1.62-1.6l5.27-7.61a18.48,18.48,0,0,1,3.41,3.15,40.71,40.71,0,0,0,5.51,4.87Z"/><path class="e" d="M155.21,403H145v-7.78l-.83-.36,3.78-8.59c2.9,1.2,5,1.82,5,1.82l3.84,1-.6,7Z"/><path class="e" d="M138.16,391.85a34.43,34.43,0,0,1-3.63-2.6,60.6,60.6,0,0,1-6.55-6.13l7-6.35a61,61,0,0,0,5.43,5,27.4,27.4,0,0,0,2.79,2Zm-14.28-14c-.71-1-1.44-2.11-2.25-3.34a50.77,50.77,0,0,1-4.22-8l8.61-3.73a41.44,41.44,0,0,0,3.17,6.07c.76,1.16,1.77,2.71,2.42,3.65Zm-8.8-17.18-.18-.44c-.84-2.19-1.71-4.45-2.71-6.77-.58-1.34-1.14-2.72-1.67-4.1l8.75-3.35c.54,1.26,1,2.43,1.49,3.64,1.06,2.44,1.9,4.57,2.78,6.87l.28.78Zm-6.63-17.43a34.94,34.94,0,0,1-1.62-9.39,12.54,12.54,0,0,1,.61-4.1,4.92,4.92,0,0,0,.16-.61l9.13,1.73a12.74,12.74,0,0,1-.48,1.83l0,.19a6.46,6.46,0,0,0-.06,1,28.69,28.69,0,0,0,1.29,6.75ZM107.88,324c0-2.95-.29-5.73-.36-6.51l-.25-1.65,1.07-1.51s1.28-1.82,2.94-4.26l7.67,5.23c-.8,1.17-1.47,2.13-2,2.9.11,1.43.24,3.55.27,5.68Zm14.52-13.85-7.77-5.07c2.28-3.49,3.27-5.21,3.69-6q1-1.87,2.07-4.1l8.3,4.16c-.75,1.5-1.44,2.91-2.09,4.18C125.82,304.81,124.44,307,122.4,310.16Zm9-16.55-8.35-4.06c1.63-3.35,3.38-7,5.15-10.91l8.46,3.83C134.87,286.43,133.08,290.2,131.42,293.61Zm7.76-16.74-8.5-3.73c1.69-3.85,3.25-7.58,4.64-11.08l8.62,3.42C142.52,269.09,140.92,272.92,139.18,276.87Zm7-17.2-8.71-3.2c1.48-4,2.75-7.78,3.79-11.26l8.89,2.64C149,251.51,147.71,255.49,146.17,259.67Z"/><path class="e" d="M151.79,241.79l-9-2.24.15-.6-.66,0,.29-9.25c2.34.07,4.46.2,6.37.35l5.09.41-.89,5C152.79,237.45,152.34,239.59,151.79,241.79Z"/><path class="e" d="M53.17,263.53l-5.07-7.75c3.68-2.41,7.53-4.69,11.44-6.77l4.35,8.17C60.23,259.13,56.62,261.27,53.17,263.53Zm16.29-9.15-4-8.36c4-1.9,8.09-3.64,12.24-5.18L81,249.52C77.06,251,73.19,252.6,69.46,254.38Zm17.38-6.91L84,238.66c1.15-.37,2.32-.73,3.51-1.09,3.08-.91,6.17-1.76,9.18-2.51l2.25,9q-4.26,1.07-8.8,2.41C89,246.78,87.92,247.12,86.84,247.47Zm18.22-4.85-2-9.06c4.38-.94,8.75-1.73,13-2.33l1.31,9.16C113.38,241,109.22,241.71,105.06,242.62Zm18.56-3-1-9.21c4.5-.47,9-.73,13.26-.8l.15,9.26C132,238.94,127.85,239.19,123.62,239.63Z"/><path class="f" d="M332.43,88.69c-1.38.67-2.79,1.37-4.27,2.15-13.85,7.35-27.68,11.38-35.81,14.55,9.44,18.32,21.46,45.52,33.26,83,18.29,58.12,18.45,93.78,18,117.23,0,.91-.11,5.84-.11,5.84s-1.66,19.49-.13,24.8,4.28,10.43,4.28,13.85-.85,10.6.17,13.34.69,7.7,1.2,11.63,5.86,12.76,5.86,12.76,4.18-10.5,5.89-10.5-.45,10.81.83,13.43c1.53,3.12,6.41,10.73,6.41,10.73a15.69,15.69,0,0,0,7.5,6.6,49.62,49.62,0,0,0,8.1,2.51c1.25.31,5.74.86,6.59,1.33.68.38,4-.56,4.78-.36,4.53,1.14,2.79.79,10.48,1.47s10.1.69,10.1.69l-1.81-3.13s5.23.39,7.45.39a6.79,6.79,0,0,0,3.09-.5s-6.68-3.77-9.76-7.88-3.31-7.4-7.39-11.57-7.49-11.35-8.86-16.65-1-14.2,1.2-21.38,5.47-15.57,6-27.2S406,300,406,290.75c0-8.49-.41-13.26,3.71-16.74-3.52-19.57-11.12-51.67-27.12-89.9A615.68,615.68,0,0,0,332.43,88.69Z"/><path class="a" d="M381,157.56c3.41,7.31,6.83,15,10.18,23,15.3,36.58,23.06,67.31,26.95,87.52a160.1,160.1,0,0,0,27.08-25.2c13.85-16.42,25.32-21.62,29.94-29.15s13.07-18.59,23-25.26,16.68-13.66,23.7-19.48c1-.86,2-1.64,3-2.4-14.48-6.5-34.32-13.07-55.64-13.34C434.75,152.79,396,156.11,381,157.56Z"/><path class="e" d="M56.1,223a61.83,61.83,0,0,0-7.25,3.57c-1.16.66-2.3,1.36-3.43,2.12A29.44,29.44,0,0,0,42,231.44c-1.75,1.68-3.34,3.39-4.87,5.12A140.27,140.27,0,0,1,40,211.31a78.69,78.69,0,0,1,2.18-8.11,34.78,34.78,0,0,1,1.47-3.85l1.75-3.94a72.9,72.9,0,0,0,5-17.18,79.72,79.72,0,0,0,1.25-17.92,45.9,45.9,0,0,0-.51-4.74c0-.38-.18-.87-.27-1.32a10.09,10.09,0,0,0-.46-1.55,7.42,7.42,0,0,0-7.76-5.07A10.31,10.31,0,0,0,39,148.68,18.13,18.13,0,0,0,34.42,152a37.41,37.41,0,0,0-5.8,7.82A41.82,41.82,0,0,0,25,168.67a60.8,60.8,0,0,0-2.11,18.06,3.09,3.09,0,0,0,6.14.37l0-.19a80.87,80.87,0,0,1,3.81-15.7,36.24,36.24,0,0,1,3.28-6.9,29.18,29.18,0,0,1,4.53-5.85A10.88,10.88,0,0,1,42.46,157a1.06,1.06,0,0,1,0,.19,36.8,36.8,0,0,1,.56,3.78c.3,2.64.46,5.39.5,8.13s0,5.51-.1,8.27a66.77,66.77,0,0,1-2.76,16.2l-1.41,4c-.54,1.42-.88,2.86-1.32,4.28-.79,2.84-1.36,5.71-2,8.56-2.17,11.45-3.41,22.84-4.93,34.43a3,3,0,0,0,5,2.5l.38-.37a102.43,102.43,0,0,1,10.69-9.42A21,21,0,0,1,49.77,236c1-.5,2-1,3.09-1.4a53.22,53.22,0,0,1,6.39-2.2l.06,0a4.1,4.1,0,0,0,.59-.2A5,5,0,1,0,56.1,223Z"/><path class="e" d="M119.14,211.33c-1.85-6.85-3.34-14.06-4.59-21.19s-2.14-14.36-2.91-21.66c-1.52-14.57-2.72-29.24-3.78-43.88v-.1a3.09,3.09,0,0,0-6.16.09h0c-.1,2.91-.39,6-.75,9s-.81,6.09-1.38,9A52.18,52.18,0,0,1,97,151.11,63.44,63.44,0,0,1,93,159.19l0,.06a1.7,1.7,0,0,0,2.87,1.83,64.2,64.2,0,0,0,4.84-8.31c.88-1.84,1.66-3.74,2.37-5.67.51,7.35,1.07,14.69,1.72,22.05s1.46,14.8,2.62,22.16,2.54,14.63,4.42,22v.06a3.79,3.79,0,0,0,7.32-2Z"/><path class="e" d="M89.58,196.13,88,172.18c-.27-4-.6-7.94-1-11.89-.15-2-.31-3.95-.53-5.92A52.38,52.38,0,0,0,85.4,148,32.44,32.44,0,0,0,83,141.63a17.26,17.26,0,0,0-4.74-5.79,11.12,11.12,0,0,0-7.44-2.17,19.13,19.13,0,0,0-6.61,1.89,7.17,7.17,0,0,0-1.73,1,8.22,8.22,0,0,0-1.42,1.48,13.78,13.78,0,0,0-1.62,3.2A36.11,36.11,0,0,0,58,147.58a114.77,114.77,0,0,0-.86,12.35,175.61,175.61,0,0,0,1.12,24.4,96.46,96.46,0,0,0,5.28,23.94c1.57,3.91,3.11,7.86,6.31,11.55a9.46,9.46,0,0,0,1.4,1.34,6.66,6.66,0,0,0,1.81,1.13,9.74,9.74,0,0,0,3.9.83,11.36,11.36,0,0,0,7-2.51,17.28,17.28,0,0,0,6.2-12,20.47,20.47,0,0,0,.07-3.41L90,202.15Zm-8.26,21.05c-2.5,2.08-6.15,1.72-7.32-.69-1.7-2.69-2.64-6.57-3.39-10.27s-1.36-7.61-2-11.48-1.44-7.73-2.15-11.66c-1.44-7.76-3-15.55-3.81-23.37a64,64,0,0,1-.3-11.64,22.91,22.91,0,0,1,1-5.44,10.19,10.19,0,0,1,1-2.17,3.84,3.84,0,0,1,.64-.68,3.55,3.55,0,0,1,.87-.44c3.38-1.51,7-1.27,8.54.89,1.72,2.16,2.34,5.72,2.6,9.3.24,1.8.18,3.6.33,5.57s.28,4,.5,6.05q.59,6,1.52,12c1.29,8,2.85,15.86,4.35,23.74l1.12,5.9.46,2.9a15,15,0,0,1,.15,2.59A11.82,11.82,0,0,1,81.32,217.18Z"/><path class="e" d="M160.23,132.33a22.33,22.33,0,0,0-5.85-12.17c-3.43-3.48-8.22-5.09-12.56-5.53-1.1-.13-2.18-.18-3.26-.21a25.79,25.79,0,0,0-3.42.11,13.87,13.87,0,0,0-7,3c-4,3.3-5.76,7.76-6.88,11.94A44.81,44.81,0,0,0,120,142.25,44,44,0,0,0,122.23,155c1.46,4.14,4.25,8.67,9.07,11a15.84,15.84,0,0,0,7.44,1.45,29.39,29.39,0,0,0,6.65-1.26,33.54,33.54,0,0,0,7-3c-.33,1.49-.67,3-1,4.47a189.4,189.4,0,0,1-17.06,43.81l-.05.09a1.95,1.95,0,0,0,3.4,1.89,193.84,193.84,0,0,0,18.51-44.53,137.72,137.72,0,0,0,4.56-23.92A50.1,50.1,0,0,0,160.23,132.33ZM153.3,155l-.27.18a34.09,34.09,0,0,1-9.57,4.35,25.33,25.33,0,0,1-5.05.93,8.76,8.76,0,0,1-4.16-.75c-2.49-1.13-4.43-3.79-5.6-7.05A37.36,37.36,0,0,1,126.71,142a39.91,39.91,0,0,1,.94-10.9c.82-3.45,2.3-6.74,4.53-8.58a7.32,7.32,0,0,1,3.77-1.68,20.82,20.82,0,0,1,2.53-.11c.92,0,1.82,0,2.7.13a14.38,14.38,0,0,1,9,3.63,16.65,16.65,0,0,1,4.41,9,44.85,44.85,0,0,1,.63,11.17,97.3,97.3,0,0,1-1.2,10.09A3.08,3.08,0,0,0,153.3,155Z"/><path class="e" d="M206.06,125a12,12,0,0,0-4.65-2.06l-3.94-.94-7.7-1.84h0l-.08,0A3.08,3.08,0,0,0,189,120a2.92,2.92,0,0,0-2.88,3c.08,5.66.1,11.34,0,17s0,11.39-.54,16.73-1.57,11-2.6,16.59l-1.61,8.35-.83,4.19-.41,2.12-.19,1.1-.1.61,0,.39,0,.34v.13a3.62,3.62,0,0,0,.06.66,3.14,3.14,0,0,0,2.24,2.38,56.05,56.05,0,0,0,17.26,1.13,16.42,16.42,0,0,0,4.78-1.2,7.14,7.14,0,0,0,2.56-1.95,9.65,9.65,0,0,0,1.43-2.41,26,26,0,0,0,1.66-8.89,64.84,64.84,0,0,0-.24-8.49c-.14-1.43-.25-2.72-.53-4.25a9.69,9.69,0,0,0-2.22-4.66,12.21,12.21,0,0,0-2.31-2,7.51,7.51,0,0,0,2.63-2.12,19.22,19.22,0,0,0,3.19-8.38,62.65,62.65,0,0,0,.83-8.34,41.57,41.57,0,0,0-.41-8.56C210.25,130.6,209,127.16,206.06,125ZM205,172.07a60.27,60.27,0,0,1-.15,7.85,23.53,23.53,0,0,1-1.54,7.06,3.8,3.8,0,0,1-.67,1.09c-.21.26-.3.26-.67.46a11.48,11.48,0,0,1-3.15.64,48.94,48.94,0,0,1-12.47-.89l.25-1.24.88-4.17,1.71-8.4c.89-4.63,1.79-9.26,2.41-14,.79.13,1.59.22,2.38.34,3.86.76,7.62,2.22,9.61,4.74a5.61,5.61,0,0,1,1.12,2.68C204.82,169.36,204.89,170.79,205,172.07Zm1.32-22.35a15.81,15.81,0,0,1-2.13,6.73A3.54,3.54,0,0,1,202,158a19.44,19.44,0,0,1-3.6,0c-.78-.05-1.58-.13-2.37-.2a37.48,37.48,0,0,0-4.11-.49c.51-6,.45-11.57.45-17.3-.07-4.53-.23-9-.39-13.55l4.37.86,4,.78a6.69,6.69,0,0,1,2.75,1c1.5,1,2.48,2.92,3,5.29a36.85,36.85,0,0,1,.66,7.55A58.71,58.71,0,0,1,206.27,149.72Z"/><path class="e" d="M240.23,193.23h0a63.48,63.48,0,0,1-6.39.56c-2.15.1-4.26,0-6.49,0L217,193.53c.47-4.84.94-9.68,1.33-14.53.45-5.81.9-11.6,1-17.55,0-.34,0-.67,0-1l1,0c.79-.05,1.55-.14,2.3-.23,1.5-.2,2.94-.43,4.41-.7s2.92-.58,4.36-.95a40.24,40.24,0,0,0,4.37-1.35,1.54,1.54,0,0,0-.78-3l-.12,0a39.46,39.46,0,0,1-4,.34c-1.39.06-2.78.05-4.17,0s-2.81-.12-4.17-.24c-.68-.06-1.36-.12-2-.22l-.92-.15-.27-.07c-.08-3.32-.19-6.64-.31-10l-.65-14.22a47.17,47.17,0,0,0,6.35.34c3.24-.15,6.31-.48,9.45-.86a1.7,1.7,0,0,0-.23-3.38h0c-3.05,0-6.18,0-9.14-.15A50,50,0,0,1,216,124a2.72,2.72,0,0,0-.81-.09,2.62,2.62,0,0,0-2.47,2.75v.11h0l.81,17.34c.21,5.77.43,11.57.41,17.26s-.51,11.43-.95,17.18-1,11.52-1.56,17.26V196a2.54,2.54,0,0,0,0,.39,2.57,2.57,0,0,0,2.71,2.4h0l13.22-.79c2.17-.12,4.47-.26,6.71-.55a65.45,65.45,0,0,0,6.71-1.17,1.54,1.54,0,0,0-.57-3Z"/><path class="e" d="M274.39,187.34h0c-2.41.63-4.81,1.33-7.14,2.07s-4.66,1.48-6.87,2c-4.05.85-8.33,1.54-12.56,2.5a136.22,136.22,0,0,0,1-15.36c0-2.13,0-4.26-.06-6.4,1.44-.17,2.83-.37,4.24-.63a48.18,48.18,0,0,0,5.4-1.31,82.36,82.36,0,0,0,10-4,1.54,1.54,0,0,0-1.12-2.87h0a78.57,78.57,0,0,1-10,2.47,50.62,50.62,0,0,1-8.81.49c-.1-1.73-.18-3.46-.33-5.19-.48-5.8-1.29-11.56-2.32-17.29a122.6,122.6,0,0,0-3.59-14.49c.72.12,1.43.21,2.17.27a23.47,23.47,0,0,0,5-.1c2.95-.36,6-.64,8.9-.83h0l.29,0a2.65,2.65,0,1,0-1-5.22c-3.07.56-6,1.2-9,1.94a20.48,20.48,0,0,1-4.1.6,21,21,0,0,1-4.15-.2h0a1.66,1.66,0,0,0-.55,0,1.55,1.55,0,0,0-1.35,1.72l0,.19,2,17,1.9,17c.56,5.66,1,11.34,1.37,17s.58,11.43.74,17.11h0a1.7,1.7,0,0,0,1.64,1.64h.06a69.47,69.47,0,0,0,15.23-1.13,38,38,0,0,0,7.46-2.5,47.68,47.68,0,0,0,6.77-3.59,1.56,1.56,0,0,0-1.23-2.82Z"/><path class="e" d="M306.45,180a74.93,74.93,0,0,0-4.44-7.58c-1.65-2.41-3.18-4.74-5.09-7.13a54.87,54.87,0,0,0-6.24-6.42c-1.12-1-2.28-1.91-3.47-2.82l-.5-.37c1.16-.48,2.32-1,3.47-1.56a13.57,13.57,0,0,0,3.66-2.55,5.52,5.52,0,0,0,1.1-4.73,45.1,45.1,0,0,0-2.41-7.92l-2.76-7.58a63.81,63.81,0,0,0-3.07-7.59c-1.31-2.43-2.81-5-5.55-6.64s-6.58-1-9,0l-7.79,2.75-.11,0a2.18,2.18,0,0,0-1.17,2.85l.12.31h0c2.13,5.17,4.05,10.53,5.84,15.88s3.44,10.75,4.76,16.2,2.51,11,3.56,16.6l1.5,8.39a45,45,0,0,0,2,8.31,1.61,1.61,0,0,0,1.36,1A1.58,1.58,0,0,0,284,188a38.76,38.76,0,0,0-.52-8.63l-1.35-8.49c-1-5.66-2-11.32-3.31-17a205.56,205.56,0,0,0-10.21-30.87,51.36,51.36,0,0,1,4.89-2.76c2.36-1.25,4.45-1.92,6.49-.92s3.61,3.16,4.79,5.42a62.22,62.22,0,0,1,3,7.31c1.81,5,4.09,10.1,4.94,15.06.13,1.21.06,2.27-.6,2.85a10.46,10.46,0,0,1-3,1.84,45.13,45.13,0,0,1-7.42,2.46h0a1,1,0,0,0-.75,1.2l.38,1.61c.41,1.79,1.61,2.44,2.71,3.25s2.18,1.66,3.22,2.55a61.88,61.88,0,0,1,5.89,5.67c1.8,2,3.66,4.24,5.42,6.41s3.6,4.41,5.24,6.57l.06.07a1.54,1.54,0,0,0,1.91.45A1.56,1.56,0,0,0,306.45,180Z"/><path class="e" d="M219.92,256.57c-1.67-4.43-3-8.75-4.43-13.19l-4.33-13.49a56,56,0,0,0-5.72-13l-.23-.36a1.76,1.76,0,0,0-.34-.39,1.79,1.79,0,0,0-2.52.19h0l-9.08,10.5-4.54,5.24c-1.5,1.65-3.13,3.3-4.75,4.92-6.53,6.51-13.27,12.89-20,19.22l-.06.05a2.48,2.48,0,0,0,3.48,3.53q7.77-7.66,15.38-15.46a31.57,31.57,0,0,0,5.62,2.85,43.46,43.46,0,0,0,8.3,2.37,77.22,77.22,0,0,0,15.64,1.59c1,2.47,2.11,4.9,3.19,7.26,2,4.32,4.12,8.53,6.38,12.71a1.55,1.55,0,0,0,2.82-1.27Zm-22.54-11.73a58.55,58.55,0,0,1-7.87-1.18,43.79,43.79,0,0,1-4.7-1.43c.74-.77,1.49-1.51,2.23-2.28,1.6-1.7,3.2-3.38,4.77-5.21l4.45-5.38,6.27-7.61a67.55,67.55,0,0,0,2.83,10.06l4.72,13.29.22.6C206,245.37,201.65,245.16,197.38,244.84Z"/><path class="e" d="M267.51,242.9c-.23-4.24-.41-8.38-.95-12.79a85.58,85.58,0,0,0-2.84-12.89v0a3,3,0,0,0-5.75,1.86l.08.24a81.76,81.76,0,0,1,2.63,11.64c.52,3.9.75,8.15,1,12.28.32,5.92.55,11.86.75,17.81-1.89-2-3.73-4.17-5.49-6.33a119.39,119.39,0,0,1-9.05-12.9,134.25,134.25,0,0,0-9.73-12.89q-5.19-6.14-10.85-11.83a.6.6,0,0,0-.47-.16.58.58,0,0,0-.5.63q1.3,13.43,1.81,26.89l1.2,27v0a.91.91,0,0,0,0,.17,2.52,2.52,0,0,0,5-.57l-3.1-26.85c-.91-8.28-2.11-16.56-3.49-24.78,3,3.53,5.88,7.17,8.6,10.91a130.23,130.23,0,0,1,8.58,13.26,124.3,124.3,0,0,0,18.55,26.65h0a2.79,2.79,0,0,0,4.83-2v-.1C268.15,259.71,267.91,251.33,267.51,242.9Z"/><path class="e" d="M320.18,230.64a51.88,51.88,0,0,0-4.86-14.52,23.44,23.44,0,0,0-5.17-6.65,15.82,15.82,0,0,0-8.34-3.79,23.45,23.45,0,0,0-8.37.75c-2.52.67-4.73,1.4-7.07,2.22s-4.54,1.82-6.69,2.74l-3.18,1.31-1.56.61-1.24.46a6.18,6.18,0,0,0-2.06,1.44,3.28,3.28,0,0,0-.31,1.31,3.84,3.84,0,0,0,.07.69l.09.33.06.18.12.35.24.71.46,1.42.89,2.88c.57,1.93,1.13,3.86,1.63,5.8,1,3.88,1.9,7.8,2.52,11.72s1,8,1.37,12,.7,8.09.93,12.12h0a2.13,2.13,0,0,0,0,.25,1.52,1.52,0,0,0,1.77,1.22l.14,0c4.68-.85,9.3-1.91,13.94-2.94,2.33-.51,4.62-1.14,6.93-1.74l3.47-.95,1.75-.51c.64-.22,1.36-.51,2-.78a17.46,17.46,0,0,0,6.54-5.57,23.58,23.58,0,0,0,3.41-7.48A35.77,35.77,0,0,0,320.18,230.64ZM313,244.55c-.84,4-2.87,7.57-6,9.37l-1.23.59-1.61.62-3.29,1.18-6.66,2.3-11.52,4c-.06-3.4-.14-6.8-.3-10.19-.19-4.11-.42-8.15-.81-12.32a122.62,122.62,0,0,0-2-12.3c-.42-2-.89-4-1.38-6l-.77-3,0-.13.93-.24,3.49-1.07c2.27-.75,4.46-1.42,6.65-2.08,4.4-1.27,8.93-2.61,12.24-2,6.44.71,10.18,10.65,12.07,18.82A31.22,31.22,0,0,1,313,244.55Z"/><path class="e" d="M200.3,294.24c-3.27-4.72-8.16-7-12.83-8.56-1.19-.38-2.39-.7-3.6-1l-3.31-.79c-2.19-.55-4.39-1.18-6.58-1.83-4.38-1.31-8.78-2.76-13.08-4.28h0l-.2-.06a2.88,2.88,0,0,0-3.53,2h0c-1,3.74-2.15,7.6-3.36,11.37a117.59,117.59,0,0,1-4,11.09,78.94,78.94,0,0,1-5.72,10.25c-1.08,1.65-2.19,3.29-3.36,4.89l-1.78,2.37-.91,1.17-.46.58-.23.29-.12.14a2,2,0,0,0-.48,1.38c0,.6,1,1.36.82,1.15l.09.06.19.12.38.23.76.45,1.53.88c1,.58,2.07,1.14,3.14,1.68a45.22,45.22,0,0,0,6.63,2.7c4.44,1.52,8.94,2.82,13.45,4s9,2.28,13.63,3.26a38.75,38.75,0,0,0,7.23.89,14,14,0,0,0,7.72-1.74c2.61-1.53,3.92-4.48,4.43-6.91.16-.64.24-1.22.35-1.89a10.12,10.12,0,0,0,0-2.2,11.4,11.4,0,0,0-1.28-4,21.52,21.52,0,0,0-4.15-5.09,11.11,11.11,0,0,0,2.8-.8,12.31,12.31,0,0,0,6.06-6,21.26,21.26,0,0,0,1.4-3.74l.43-1.89.25-2.08A13.37,13.37,0,0,0,200.3,294.24Zm-61.14,27.6h0C139.05,321.76,139.08,321.78,139.16,321.84Zm54.06,4.6a6.84,6.84,0,0,1,0,1.28c-.07.46-.15,1-.27,1.53-.44,2-1.22,3.69-2.7,4.57s-3.55,1.23-5.66,1.24a35.65,35.65,0,0,1-6.57-.74c-4.46-.89-9-1.94-13.47-3.05s-8.9-2.34-13.26-3.77A42,42,0,0,1,145,325c-1-.5-2-1-3-1.57l-1.36-.76.79-.9,2-2.35c1.29-1.57,2.53-3.2,3.74-4.84a84.9,84.9,0,0,0,6.21-9.79l6.24,2.45,13,5.05,6.56,2.44,3.34,1.17c.5.16,1,.31,1.52.45,3.37,1.87,6.6,4.42,8.33,7.48A7.44,7.44,0,0,1,193.22,326.44Zm2.7-18.6c-1.58,3.53-4.83,4.84-8.91,4.15a36.3,36.3,0,0,1-6.24-1.82l-6.51-2.33-4.4-1.65-11.35-4.27-1.86-.69-1.29-.49c1.17-2.63,2.17-5.26,3.22-7.87,1.11-2.87,2.17-5.75,3.18-8.69,3.53,1.16,7.05,2.31,10.63,3.33,2.26.64,4.53,1.26,6.84,1.81l3.47.78c1.06.22,2.1.49,3.13.8,4.06,1.23,8,3.3,10.08,6.31a8,8,0,0,1,1.47,5A16,16,0,0,1,195.92,307.84Z"/><path class="e" d="M269.38,318.22a12.24,12.24,0,0,0-5-1.55l-.32,0a15.51,15.51,0,0,0,5.73-3.59,20.33,20.33,0,0,0,1.47-1.64,11.53,11.53,0,0,0,1.36-1.94,8.49,8.49,0,0,0,.71-4.87,17.67,17.67,0,0,0-3.52-8.15,13.22,13.22,0,0,0-3.33-3.2,12.76,12.76,0,0,0-4.4-1.47,83.11,83.11,0,0,0-16.64-.53c-10.85,1-21.63.59-32.5.25a1.61,1.61,0,0,0-1.61,1.54h0l-.46,11.34-.23,5.66-.12,2.82a19.64,19.64,0,0,1-.34,2.51,69.12,69.12,0,0,1-3.25,10.4c-.65,1.73-1.37,3.45-2.09,5.17l-1.11,2.56-.57,1.27-.29.63-.14.31,0,.08a2.84,2.84,0,0,0-.15.41,3.8,3.8,0,0,0,.18,2.71,3.76,3.76,0,0,0,1.92,1.58,5,5,0,0,0,.57.16h.14l.27.05.54.08,1.08.17,2.16.32,4.31.58c2.88.36,5.77.67,8.67.91a128.49,128.49,0,0,0,17.55.3A143.39,143.39,0,0,0,257.31,341a82.4,82.4,0,0,0,8.78-1.72,14.89,14.89,0,0,0,4.59-2.27,9.94,9.94,0,0,0,3.41-4.45c1.36-3.76.29-7.37-1.15-10.22A10.31,10.31,0,0,0,269.38,318.22Zm-23.77-23.89a80.39,80.39,0,0,1,15.94.48,10.23,10.23,0,0,1,3.31,1.05,10.37,10.37,0,0,1,2.51,2.45,14.73,14.73,0,0,1,2.91,6.66,5.44,5.44,0,0,1-.39,3.11,8.81,8.81,0,0,1-1,1.38,16.86,16.86,0,0,1-1.25,1.39,13.45,13.45,0,0,1-6.4,3.44,38.42,38.42,0,0,1-9,1c-1.69-.16-3.37-.3-5.05-.42-10.68-.77-21.33-1.31-32-1.81V313l-.11-2.85-.23-5.7-.38-9.78C224.83,295,235.31,295.27,245.61,294.33Zm-39.12,39.74h0Zm2.4,4.31v0C208.84,338.51,208.9,338.34,208.89,338.38Zm60.63-7.58c-.67,1.69-2.54,2.93-4.93,3.59s-5.3.89-8.1,1.33a138.9,138.9,0,0,1-16.76,1.56,124.9,124.9,0,0,1-16.74-.73c-2.79-.3-5.58-.68-8.37-1.1l-4.18-.67-.26,0,.54-1.57c.6-1.83,1.2-3.67,1.74-5.53A73.92,73.92,0,0,0,215,316.21q8.52.77,17.05,1.3c4.94.41,9.87.83,14.79,1.31,2.83.29,5.68.59,8.41,1s5.87.89,8.49,1.25c2.8.42,3.91,1.11,5,3.39S270.25,329.11,269.52,330.8Z"/><path class="e" d="M306,306.24l-.15-.17S305.73,306,306,306.24Z"/><path class="e" d="M328.75,311.22h0l-2.36-.77c.07-.15.17-.28.23-.44a19.71,19.71,0,0,0,1.58-9.32,24.63,24.63,0,0,0-2.16-9,19.58,19.58,0,0,0-5.94-7.3,22.47,22.47,0,0,0-18.15-3.73C296,282,290,284.45,285.28,289a25.26,25.26,0,0,0-7.67,17.68,29.63,29.63,0,0,0,1.13,9.69,15.84,15.84,0,0,0,6.23,8.77,16.91,16.91,0,0,0,10.17,2.53,34.6,34.6,0,0,0,9.3-1.89,65.91,65.91,0,0,0,8.35-3.52,42.58,42.58,0,0,0,7.81-4.83,23.18,23.18,0,0,0,3.86-3.93c1.17.23,2.35.47,3.53.69a1.55,1.55,0,0,0,.76-3ZM318,314c-4.4,2.94-9.95,5-15.18,6.45s-10.92,1.69-14.22-.7c-3.35-2.22-4.19-7.72-4.19-12.86a21.22,21.22,0,0,1,5.11-13.82,23.92,23.92,0,0,1,6-4.92,38.33,38.33,0,0,1,7.49-3.15,18.21,18.21,0,0,1,15.09,2c4.53,2.88,6.76,8.32,6.68,13.76a15.52,15.52,0,0,1-2.11,8.43c-1.54-.53-3.07-1.07-4.57-1.64l-2.54-1a13.81,13.81,0,0,1-2.07-1.19,9.4,9.4,0,0,1-1.65-1.47,7.33,7.33,0,0,1-.64-.83l-.31-.47-.2-.31a3.12,3.12,0,1,0-4.39,4.22l-.32-.27.08.09.58.63a13.5,13.5,0,0,0,1.32,1.19,14.76,14.76,0,0,0,2.92,1.82,18.32,18.32,0,0,0,3.06,1.14l2.82.75c1.06.26,2.1.47,3.15.71A15,15,0,0,1,318,314Z"/><path class="e" d="M557.89,98.72a2.52,2.52,0,0,0-3.53.32l-10.31,12.4c-1.73,2.1-3.27,4.28-5,6.27-1.14,1.34-2.31,2.64-3.51,3.92-1-2.87-2.05-5.77-3-8.65-.51-1.65-1-3.31-1.37-4.9l-.51-2.61-.29-1.36-.19-.74-.14-.45-.13-.33a2.78,2.78,0,0,0-.17-.32l-.06-.1-.22-.29-.13-.14-.06-.07a3.17,3.17,0,0,0-.34-.28,2.84,2.84,0,0,0-.79-.41,3.08,3.08,0,0,0-1.67-.07,3,3,0,0,0-1.93,1.53,2.9,2.9,0,0,0,.1,2.76h0l.1.17,0,.08a.6.6,0,0,0,.06.11l0,0,.17.34.49,1.15,1,2.45c.63,1.78,1.35,3.41,2.08,5,1.46,3.25,3,6.42,4.62,9.58,0,.06.07.09.11.14a33.18,33.18,0,0,0-2.91,6.6,37.77,37.77,0,0,0-1.72,7.5,39.15,39.15,0,0,0-.2,7.73,31.83,31.83,0,0,0,1.58,7.78l.09.21a1.55,1.55,0,1,0,2.74-1.46l0-.08a20.94,20.94,0,0,1-2-6.7,27.69,27.69,0,0,1-.07-7.22,35.79,35.79,0,0,1,1.66-7.07,29.13,29.13,0,0,1,3.17-6.31c2-1.81,3.83-3.67,5.64-5.61l5.43-5.9c3.62-3.87,7.45-7.6,11.33-11.22l0,0,.21-.22A2.51,2.51,0,0,0,557.89,98.72Zm-32.34,7.47a3,3,0,0,1-.33-.28l-.06-.06-.1-.1a2.85,2.85,0,0,0,.69.54A1.24,1.24,0,0,1,525.55,106.19Zm.77.4c-.08,0-.14-.08-.22-.11a3.18,3.18,0,0,0,.9.25A2.84,2.84,0,0,1,526.32,106.59Zm.8.14a2.92,2.92,0,0,0,1-.12l-.16,0A2.41,2.41,0,0,1,527.12,106.73Zm1.08-.14a2.84,2.84,0,0,0,.85-.47A2.83,2.83,0,0,1,528.2,106.59Zm1.06-.65a3.23,3.23,0,0,0,.64-.81A3.23,3.23,0,0,1,529.26,105.94Z"/><path class="e" d="M524.72,105.2s0,0,0,0a1.53,1.53,0,0,0,.09.17l0,.07,0,.06,0-.08C524.8,105.37,524.77,105.28,524.72,105.2Z"/><path class="e" d="M524,147.57l0-.19-.07-.65-.11-1.37-.2-2.79-.37-5.6c-.24-3.74-.57-7.46-1.06-11.23-1.15-7.64-4.35-14.37-5.76-21.85a1.48,1.48,0,0,0-.77-1,1.45,1.45,0,0,0-1.94.64l-.12.23a129.93,129.93,0,0,0-8,18.16c-.25.83-.49,1.67-.67,2.58l-.44,2.43-.87,4.81-1.72,9.62a.43.43,0,0,0,0,.11,2.39,2.39,0,0,0,4.74.63l1.32-9.68.66-4.84v0c.37.15.73.3,1.12.43a15,15,0,0,0,4,.84l6.34.13c.11,2.69.11,5.4.08,8.12,0,1.85-.1,3.7-.2,5.56l-.14,2.79-.07,1.42,0,.75v.4a4.55,4.55,0,0,0,.12.9,2.22,2.22,0,0,0,4.21-1.4A.41.41,0,0,1,524,147.57ZM513.46,105Zm.41,21.73a15.55,15.55,0,0,1-4.9-2.07c.1-.54.21-1.08.35-1.64A113,113,0,0,1,515,108a54,54,0,0,1,2.63,7.24,66,66,0,0,1,2.2,10.75c0,.53,0,1.07.07,1.61Z"/><path class="e" d="M524,147.57v.11C524,147.75,524,147.66,524,147.57Z"/><path class="e" d="M500.71,106.65a10.6,10.6,0,0,0-2.78-3.36,15.12,15.12,0,0,0-3.86-2c-1.3-.47-2.59-.92-3.91-1.29l-2-.51-1-.25-.5-.13-.26-.06-.13,0h-.11a2.9,2.9,0,0,0-.71,0,3,3,0,0,0-1.29.63,3.09,3.09,0,0,0-.85,2v2.3l0,2.37,0,4.72,0,9.43c-.14,6.15-.8,12.47-1.43,18.71v.1a1.5,1.5,0,0,0,1.24,1.62h0a75.21,75.21,0,0,0,7.93.51,19.5,19.5,0,0,0,4.1-.4,3.19,3.19,0,0,0,2.07-1.36,10.35,10.35,0,0,0,.85-1.93,146.86,146.86,0,0,0,3.4-15.23,38.2,38.2,0,0,0,.93-7.83A16.3,16.3,0,0,0,500.71,106.65Zm-12.08-4.76h0C488.63,101.85,488.63,101.8,488.63,101.89Zm-2.72,2.35H486l.23,0,.39,0h0a2.5,2.5,0,0,1-.65.06Zm14.33,18c-.81,5-1.66,10.22-3.47,14.94a7.35,7.35,0,0,1-.8,1.56c-.17.32-.59.43-1.16.56a13.2,13.2,0,0,1-3.61,0,49.15,49.15,0,0,1-6-1.12c.93-5.81,1.85-11.58,2.34-17.56l.6-9.51.24-4.74.12-2.25h1a24.66,24.66,0,0,1,3.67.32,10.32,10.32,0,0,1,3.22,1,7.91,7.91,0,0,1,2.39,2.33,14.29,14.29,0,0,1,2,6.88A40.69,40.69,0,0,1,500.24,122.25Z"/><path class="e" d="M391.38,79.7c-6.56.18-13.07.42-19.67,1-1.66.14-3.32.31-5,.56a35.53,35.53,0,0,0-5.19,1.21,37.12,37.12,0,0,0-9.79,4.67,3.59,3.59,0,0,0-.33.25,3.65,3.65,0,0,0,4.75,5.54l.13-.11a30.81,30.81,0,0,1,7.39-4.5,37.51,37.51,0,0,1,8.44-2.42l4.74,12.6c1.72,4.69,3.64,9.33,5.05,14,2.87,9.48,5.26,19.22,7.55,28.92v0a1.54,1.54,0,0,0,3-.65c-2-9.86-4-19.66-6.58-29.44-1.3-5-3.06-9.65-4.61-14.42l-4-11.93q7.15-1.22,14.38-2.19A1.56,1.56,0,0,0,393,81.21,1.54,1.54,0,0,0,391.38,79.7Z"/><path class="e" d="M422.32,112.16c-.43-4.25-.53-8.54-.69-12.84l-.3-12.91a.83.83,0,0,0-.78-.81.81.81,0,0,0-.85.77l-.6,12.94c-.09,2.88-.17,5.78-.2,8.68a68.93,68.93,0,0,0-7-.06,30.69,30.69,0,0,0-4.37.54c-.35.06-.68.15-1,.22-.09-1.17-.18-2.36-.36-3.64-.82-5.5-2-10.73-3.08-16s-2.34-10.51-3.59-15.76a2.46,2.46,0,0,0-4.8,1.08c1.09,5.23,2.15,10.49,3.14,15.74s2,10.54,2.58,15.68c.3,2.37.25,5.2.37,7.84l.24,8,.49,16.07v0s0,.08,0,.12a3.49,3.49,0,1,0,7-.48l-1.1-16.1-.55-8,0-.47c.57-.26,1.16-.51,1.74-.73a28.83,28.83,0,0,1,3.77-1.16c2.15-.49,4.4-.83,6.64-1.13,0,.85,0,1.69,0,2.53l.78,25.92a1.21,1.21,0,0,0,0,.19,2.67,2.67,0,0,0,5.31-.55v-.05Z"/><path class="e" d="M444.51,137.32l0,0S444.57,137.39,444.51,137.32Z"/><path class="e" d="M444.51,137.32l-.07-.14a4.67,4.67,0,0,1-.19-.54,11.42,11.42,0,0,1-.33-1.34,28.36,28.36,0,0,1-.39-3c-.19-2.06-.21-4.17-.23-6.31l0-12.9.32-25.83a1.1,1.1,0,0,0-2.2-.07L440.14,113,439.59,126c-.06,1.87-.1,3.79-.06,5.73a8.65,8.65,0,0,1-1.87,3.94c-1.31,1.67-3.91,2.33-5.38,1.46a5,5,0,0,1-1.36-2.63,28.86,28.86,0,0,1-.69-3.59c-.32-2.47-.48-5-.61-7.53-.26-5.09-.4-10.14-.36-15.24s.22-10.2.4-15.28v-.18a2.16,2.16,0,1,0-4.32.14l.51,15.37c.15,5.13.49,10.29.93,15.39.22,2.56.47,5.13.9,7.72a31.28,31.28,0,0,0,.9,3.9A7.21,7.21,0,0,0,431,139c3.13,1.76,6.45.34,8.47-1.72a7.57,7.57,0,0,0,.49-.63c.07.37.12.73.21,1.11a10.36,10.36,0,0,0,.32,1,4.33,4.33,0,0,0,.25.57,2.94,2.94,0,0,0,.71,1,2.16,2.16,0,1,0,2.82-3.27A2.66,2.66,0,0,1,444.51,137.32Z"/><path class="e" d="M463,137.69c-.82-1.69-1.6-3.48-2.3-5.25-.35-.89-.69-1.79-1-2.69a12.69,12.69,0,0,0-1.47-2.92,41.15,41.15,0,0,0-6-6.75c.8,0,1.59.08,2.4.06a14.78,14.78,0,0,0,2.87-.29,4.65,4.65,0,0,0,2.62-2c2.13-3.51,2-7.3,2-10.88a29,29,0,0,0-2.17-10.68c-.84-2-2.64-3-4.26-3.94a35.38,35.38,0,0,0-5.31-2.11h0l-.13,0a1.52,1.52,0,0,0-1.6,1.43v.12L448,103.29c-.2,3.86-.38,7.71-.47,11.6s0,7.75,0,11.62l.06,11.55v.07a2.13,2.13,0,0,0,4.25-.14l-.37-11.56c0-1.31-.08-2.63-.13-4a36.71,36.71,0,0,1,4.73,5.73,9.91,9.91,0,0,1,1.1,2.34q.42,1.44.9,2.85c.65,1.89,1.34,3.73,2.14,5.6l0,.07a1.55,1.55,0,0,0,2.78-1.36Zm-4.33-40.83a24.85,24.85,0,0,1,2,10.17c0,3.43-.31,7.21-2.09,9.8A2.77,2.77,0,0,1,457,118a14.67,14.67,0,0,1-2.46.16c-1.1,0-2.23-.12-3.35-.2,0-1-.06-2-.07-3,0-3.81.08-7.66.19-11.5l.33-10a14.06,14.06,0,0,1,3.3.63A5.87,5.87,0,0,1,458.66,96.86Z"/><path class="e" d="M481,108.78l-.19-1.41c-.14-.94-.3-1.87-.5-2.81-.5-1.91-.69-3.72-2.35-5.91a8.19,8.19,0,0,0-6.28-2.47,5.25,5.25,0,0,0-3.45,1.4,6,6,0,0,0-1.58,3.11,34.26,34.26,0,0,0-.2,11.33,13.27,13.27,0,0,0,.71,2.84,5.88,5.88,0,0,0,1.9,2.45c1.48,1.23,3,2.16,4.43,3.25a8.85,8.85,0,0,1,3.19,3.85,19,19,0,0,1,.43,5.22,48.35,48.35,0,0,1-.42,5.37c-.14.88-.29,1.76-.5,2.6a4.66,4.66,0,0,1-.36,1.05c0,.07-.29.23-.65.35a10.08,10.08,0,0,1-4.88.12,3.1,3.1,0,0,1-1.73-.9,6,6,0,0,1-.43-2,70.82,70.82,0,0,1-.18-10.72v-.05a2.89,2.89,0,0,0,0-.5,2.34,2.34,0,1,0-4.61.79c.64,3.7,1.14,7.3,2.05,11,.12.47.24.94.41,1.43a3.9,3.9,0,0,0,1,1.69,5.61,5.61,0,0,0,3.13,1.4,12.75,12.75,0,0,0,5.91-.63,2.69,2.69,0,0,0,1.53-1.18,5.88,5.88,0,0,0,.47-1.54c.18-.94.29-1.86.38-2.78.18-1.85.29-3.68.29-5.53a23.3,23.3,0,0,0-.54-5.63,10.1,10.1,0,0,0-3.59-4.51c-1.43-1.19-3-2.21-4.25-3.36a4,4,0,0,1-1.31-1.88,11.45,11.45,0,0,1-.44-2.49,30.43,30.43,0,0,1,.92-10.38c.51-1.64,1.17-2.09,2.5-2.07a5.49,5.49,0,0,1,3.53,1.63,12.3,12.3,0,0,1,1.24,4.29c.13.86.23,1.72.31,2.6l.1,1.31,0,.65c0,.22,0,.44.57.61l.37.1a3.59,3.59,0,0,0,2.71-.28c.54-.29.51-.52.47-.76Z"/><path class="e" d="M408.84,180.5a38.67,38.67,0,0,0,4.94-1.72,10.69,10.69,0,0,0,4.64-3.73,9.29,9.29,0,0,0,1.45-5.84,19.73,19.73,0,0,0-1.28-5.19c-.23-.63-.48-1.24-.73-1.85l3.72-.2h.14a2.33,2.33,0,0,0-.48-4.63c-5,.51-10,1-15,1.78s-9.91,1.82-14.84,2.86a1.54,1.54,0,0,0,.56,3h0c4.91-.77,9.88-1.53,14.75-2,2.55-.24,5.13-.43,7.71-.59.35.87.67,1.79.94,2.7a16.41,16.41,0,0,1,.81,4.29c.06,2.71-1.47,4.53-4.06,5.47-2.74.91-6.05,1.81-8.44,1.52a5,5,0,0,1-1.6-.45,5.46,5.46,0,0,1-.74-.41,2.15,2.15,0,0,1-.41-.38,6.33,6.33,0,0,1-1.19-3V172a2.38,2.38,0,0,0-.05-.26,2.75,2.75,0,0,0-5.36,1.22,11.24,11.24,0,0,0,2.9,5.74,7,7,0,0,0,1.49,1.13,10.63,10.63,0,0,0,1.44.69,10,10,0,0,0,3.13.66A17.83,17.83,0,0,0,408.84,180.5Z"/><path class="e" d="M419.33,203a14.43,14.43,0,0,0,6.76-3.9,11.53,11.53,0,0,0,3.11-7.51,25.15,25.15,0,0,0-2.4-11.14,16.4,16.4,0,0,1-1-2.78l0-.07,0-.13a2.49,2.49,0,0,0-4.76,1.47,19.79,19.79,0,0,0,1.51,3.67,20.7,20.7,0,0,1,2.45,8.85c.18,3.84-2.64,7-6.66,8.35a11.88,11.88,0,0,1-6.05.68,7,7,0,0,1-4.91-2.68,29.74,29.74,0,0,1-2.37-6.13c-.65-2.18-1.22-4.41-1.73-6.63a.9.9,0,0,0-1-.7.89.89,0,0,0-.74,1c.39,2.31.84,4.58,1.38,6.86a30.92,30.92,0,0,0,2.28,6.87,9.61,9.61,0,0,0,6.59,4.27A15.58,15.58,0,0,0,419.33,203Z"/><path class="e" d="M447.58,230c-4.19,4.2-8.44,8.41-12.8,12.32-3.37,2.92-7,5.8-10.57,8.66-.4-1.81-.81-3.63-1.25-5.44.53-.26,1.07-.49,1.6-.78a16.17,16.17,0,0,0,3.2-2.11,39.06,39.06,0,0,0,4.71-5.58.22.22,0,0,0,0-.08,2,2,0,1,0-3.27-2.16l0,0a36.9,36.9,0,0,1-3.93,5.15,15.72,15.72,0,0,1-2.43,1.85c-.22.14-.46.26-.68.4-.17-.65-.33-1.29-.53-2a27.76,27.76,0,0,0-1.16-2.92l-1.72-4c1.7-.54,3.4-1.07,5.09-1.66a44.66,44.66,0,0,0,6.66-2.79l12.23-6.7.16-.1a2.58,2.58,0,0,0-2.79-4.34l0,0-11.63,7.48a41.66,41.66,0,0,1-5.92,3c-2.09.93-4.22,1.81-6.34,2.64a1.63,1.63,0,0,0-.94,2h0l1.94,5.58a23.88,23.88,0,0,1,.85,2.68c.19.89.35,1.87.51,2.83.61,3.88,1.15,7.83,1.66,11.75a2.43,2.43,0,0,0,4.07,1.48h0l6.59-6.06c2.16-2.06,4.42-4,6.49-6.32,4-4.5,7.78-9.12,11.52-13.78a.87.87,0,0,0-1.3-1.15Z"/><path class="e" d="M416.68,228a2.68,2.68,0,0,0,1.49-3.49l-3.5-8.72c-.71-1.64-1.45-3.23-2.21-4.8,1.17.46,2.35.89,3.56,1.27a32.59,32.59,0,0,0,8,1.54c5.25.46,10.49.72,15.75.83h0a1.26,1.26,0,0,0,.27,0,.89.89,0,0,0,.58-1.1v0l-3-9.59a21.87,21.87,0,0,1-.95-4.67c-.18-1.62-.3-3.29-.39-4.92a.28.28,0,0,0,0-.09,1.54,1.54,0,0,0-3.07.32c.19,1.71.4,3.38.68,5.08a21.5,21.5,0,0,0,1.35,5.09l3.23,8.11c-4.75-.31-9.5-.73-14.22-1.32a29.27,29.27,0,0,1-7.34-1.78,54.93,54.93,0,0,1-6.94-3.14,1.55,1.55,0,0,0-1.27-.09,1.54,1.54,0,0,0-.89,2l0,.1c1.07,2.86,2.15,5.78,3,8.63s1.47,5.94,2.21,8.9l0,.1c0,.11.07.22.11.33A2.67,2.67,0,0,0,416.68,228Z"/><path class="e" d="M461.34,215.31a101.92,101.92,0,0,1-5.45-13.53c-1.55-4.67-2.88-9.37-4.06-14.19l-7.21-28.87,0-.13a2.69,2.69,0,0,0-5-.49h0c-1.62,3.47-3.1,6.91-4.4,10.53l-3.57,10.62a1.54,1.54,0,0,0,2.86,1.14v0l4.66-10.1c.64-1.3,1.33-2.6,2-3.9l6.55,22.37c1.37,4.77,2.94,9.59,4.71,14.28a104,104,0,0,0,6.26,13.83,1.54,1.54,0,0,0,2.72-1.45Z"/><path class="e" d="M500.75,173.07a21.54,21.54,0,0,0-1.54-5.3,13.93,13.93,0,0,0-3.08-5,16.09,16.09,0,0,0-4.92-3.26A39.08,39.08,0,0,0,481.12,157c-6.08-.86-13.42-2.21-20.55.46a14.5,14.5,0,0,0-8.49,8,11.61,11.61,0,0,0-.68,6.23,14.52,14.52,0,0,0,2.18,5.45,26,26,0,0,0,3.37,4.16,14.47,14.47,0,0,0,4.81,3.22,31.65,31.65,0,0,0,10.16,2.11,53.8,53.8,0,0,0,7.52-.07c-1.15.55-2.3,1.13-3.44,1.81a12.76,12.76,0,0,0-4.14,3.63A16.66,16.66,0,0,0,470,197c-.4,1.6-.74,3.19-1,4.79-.59,3.19-1.08,6.38-1.44,9.6a.65.65,0,0,0,.49.69.64.64,0,0,0,.75-.48c.75-3.11,1.54-6.22,2.42-9.28.44-1.53.91-3.05,1.44-4.52a15.91,15.91,0,0,1,1.82-3.92c1.55-1.87,4.68-3.08,7.54-4.17s6-2,9.14-3.43,6.42-3.1,8.61-6.91A10.29,10.29,0,0,0,500.75,173.07Zm-5.58,4c-.88,2-3.4,3.75-6,5.11l-.07,0a85.84,85.84,0,0,1-16.73,0,28,28,0,0,1-8.53-2.25,9.25,9.25,0,0,1-3.07-2.21,19.8,19.8,0,0,1-2.57-3.41c-1.42-2.36-1.72-4.64-.79-6.67a8.77,8.77,0,0,1,5.28-4.64,22.35,22.35,0,0,1,8.33-1c1.48.07,3,.25,4.46.45l4.79.63a39.55,39.55,0,0,1,8.62,1.92A10,10,0,0,1,492,167a9,9,0,0,1,2,3.08C495.36,172.79,496.05,175.19,495.17,177Z"/><path class="e" d="M315.91,123.24a27.08,27.08,0,0,0,3.94-1.19,18.28,18.28,0,0,0,4.43-2.45c1.38-1.14,2.32-2.18,3.5-3.28l1.71-1.66a88,88,0,0,0,14.19,10.59,1.55,1.55,0,0,0,1.87-2.45l0,0c-4.47-4.26-9.13-8.39-13.32-12.67l-1.52-1.61c-.59-.62-1.19-1.28-1.84-1.84a23,23,0,0,0-4.17-3,24.37,24.37,0,0,0-9.48-3.1l-.23,0h-.1a1.53,1.53,0,0,0-1.59,1.46c-.11,2.85-.2,5.68-.23,8.54,0,1.43,0,2.85,0,4.32s0,2.73,0,4.13c-.22,5.62-.6,11.27-1,16.9h0a1.54,1.54,0,0,0,3.08.22C315.42,131.84,315.69,127.55,315.91,123.24Zm.21-4.12c.05-1.42.1-2.88,0-4.36s0-2.77,0-4.17c0-2,.1-4,.17-6,2,1.07,3.92,2.2,5.71,3.41a29.41,29.41,0,0,1,3.31,2.6,15.66,15.66,0,0,1,1.25,1.19L325,113.56c-1,1-2.06,2.33-3,3.21a17.73,17.73,0,0,1-5.88,3.14C316.09,119.65,316.11,119.39,316.12,119.12Z"/><path class="e" d="M325.56,158.79a49.7,49.7,0,0,0-2.3-5.38c1.63-.66,4.65-1.87,6.13-2.48A49.2,49.2,0,0,0,334.9,148a1.54,1.54,0,0,0-1.6-2.64,48.25,48.25,0,0,1-5.08,2.7c-1.56.64-4.86,2-6.39,2.58L318.3,144a100,100,0,0,1,14-4.61,67.73,67.73,0,0,0,8.18-2.62,72.29,72.29,0,0,0,7.86-3.56l.1,0A2.35,2.35,0,0,0,346,129.1l-.06,0a69.48,69.48,0,0,1-7.15,3.65,65.64,65.64,0,0,1-7.56,2.83,103.6,103.6,0,0,0-15.8,6.2,1.56,1.56,0,0,0-.75,2l0,.09h0l4.58,10.85a44.72,44.72,0,0,1,1.8,5.46c.5,1.85,1,3.79,1.37,5.62v0l.06.22a2.59,2.59,0,0,0,4.95-1.52C326.91,162.57,326.27,160.71,325.56,158.79Z"/><path class="e" d="M346.41,159.71A33.4,33.4,0,0,1,348,165c.36,1.83.57,3.69.87,5.54s.47,3.71.6,5.59v.05a1.34,1.34,0,0,0,.1.43,1.56,1.56,0,1,0,2.92-1.1c-1.35-3.56-2.37-7.17-3.36-10.78-.54-1.83-1.14-3.62-1.84-5.37a18.8,18.8,0,0,1-1.17-4.24l.12-.05,12.9-7a1.54,1.54,0,0,0-1.38-2.76l0,0-13.21,6a123.88,123.88,0,0,1-13.59,4.39h0l-.17.06a2.58,2.58,0,1,0,1.71,4.86c4-1.41,7.93-2.88,11.83-4.66A11.21,11.21,0,0,1,346.41,159.71Z"/><path class="e" d="M342.34,214.62l.28-.07a157.08,157.08,0,0,0,19.58-5.68,154.46,154.46,0,0,0,18.54-8.75l.15-.08a2.74,2.74,0,1,0-2.93-4.63l-.06,0A149.17,149.17,0,0,1,360.6,205a150.82,150.82,0,0,1-17.25,6.15c-.43-1.77-.88-3.49-1.36-5.21-.53-1.87-1.14-3.71-1.74-5.54,3.37-.84,6.72-1.7,10.07-2.71a44.28,44.28,0,0,0,5.11-1.94l4.88-2,.06,0,.13-.07a1.54,1.54,0,1,0-1.46-2.72l-4.76,2.53a42.87,42.87,0,0,1-4.66,2.31c-3.17,1.29-6.43,2.48-9.68,3.63l-.09-.26a115,115,0,0,1-3.52-11.92c2.51-.52,5-1,7.5-1.63a76.63,76.63,0,0,0,9-2.55c3-1.21,5.67-2.55,8.44-3.9L369.5,175l.09,0a2.29,2.29,0,0,0-2.23-4l0,0-7.94,4.43c-2.65,1.43-5.35,2.9-8,4.1a75.69,75.69,0,0,1-8.43,2.73c-2.91.8-5.85,1.56-8.79,2.26h0l-.28.07a1.4,1.4,0,0,0-.38.16,1.34,1.34,0,0,0-.45,1.84,58,58,0,0,1,5.56,12.94,50.19,50.19,0,0,1,1.63,6.8,33.43,33.43,0,0,1,.45,6.87h0a1.5,1.5,0,0,0,0,.47A1.34,1.34,0,0,0,342.34,214.62Z"/><path class="e" d="M350.68,248.92a132.53,132.53,0,0,0-2.69-14l-3.38-12.2c6.92-2.44,13.88-4.86,20.88-7A94.73,94.73,0,0,1,376.78,213a28.42,28.42,0,0,1,5.63-.44c1.81.07,3.69.5,4.53,1.68,1.39,2.9,2.23,7.45-.35,9.78s-6.74,2.72-10.52,3.58L353,232.21h0a.67.67,0,0,0,.14,1.32h0c6.88,0,13.92.35,20.41,1.95a54.44,54.44,0,0,1,9.28,3.9c3.05,1.53,6.1,3.2,9,4.93l0,0,.21.12a2.62,2.62,0,1,0,2.28-4.72c-3.26-1.57-6.47-2.95-9.78-4.24a56.61,56.61,0,0,0-10.31-3.22,69.23,69.23,0,0,0-10.8-.67l12.93-2.42c1.94-.39,3.85-.68,5.82-1.13a12.41,12.41,0,0,0,5.63-2.77,7.8,7.8,0,0,0,2.3-6,14,14,0,0,0-.45-3.11,10.43,10.43,0,0,0-1.15-3.07c-1.57-2.1-4-2.45-6-2.63a30,30,0,0,0-6.09.32,99.51,99.51,0,0,0-11.64,2.54c-7.63,2.1-15.09,4.51-22.58,6.94l-.19,0a1.12,1.12,0,0,0-.9,1.28l.1.53,2.4,13.71a127.18,127.18,0,0,1,1.23,13.61v.06a2.64,2.64,0,0,0,0,.28,2.92,2.92,0,1,0,5.78-.81Z"/><path class="e" d="M348.76,286.24a1.54,1.54,0,0,0,3.08-.09l-.07-14.53v-.12a152.7,152.7,0,0,0,22.43-.09c4-.35,7.94-.8,11.91-1.3l5.94-.83,3-.48.62-.12c.13,1.58.24,3.15.28,4.72l.09,3.68,0,3.21v.65a1.48,1.48,0,0,0,2.91.4,3.82,3.82,0,0,0,.16-.82l.06-.51.09-1,.13-1.89.16-3.74c.1-2.53.06-5.05,0-7.54-.16-5-.44-10-.79-14.93,0-.05,0-.11,0-.17a2.53,2.53,0,1,0-5,.7h0c.62,4.47,1.17,9,1.63,13.46l-1,.23-2.87.6-5.82,1.06c-3.9.67-7.82,1.29-11.73,1.8a150.16,150.16,0,0,1-22.16,1c0-1.77-.11-3.54-.16-5.32l-.26-7.28v-.12a2.3,2.3,0,1,0-4.58.4v.1l.62,7.17c.19,2.39.47,4.77.57,7.18l.82,14.4Z"/><path class="e" d="M389.64,284.28c-5.46-2.52-11.32-2.2-16.59-1.25a42.21,42.21,0,0,0-14.79,6.54,25.75,25.75,0,0,0-6,5.57,14.93,14.93,0,0,0-3.17,7.76,12.48,12.48,0,0,0,2.07,8.08,7.53,7.53,0,0,0,1.42,1.61,10.07,10.07,0,0,0,1.64,1.35A12.76,12.76,0,0,0,357.9,316c5.4,1.55,10.79,1.07,16,.5a75.34,75.34,0,0,0,7.83-1.27,29.26,29.26,0,0,0,7.65-3,23,23,0,0,0,6.51-5.33,13.71,13.71,0,0,0,3.44-8.33,15.25,15.25,0,0,0-2.87-8.54A17,17,0,0,0,389.64,284.28Zm-2.37,24.4a26.56,26.56,0,0,1-6.56,2.83c-2.27.62-4.86,1-7.34,1.45-4.95.76-10.05,1.23-14.65.17a11.85,11.85,0,0,1-3.34-1,4.24,4.24,0,0,1-1.38-1,5.7,5.7,0,0,1-1.06-1.33,10.21,10.21,0,0,1-1.33-6.6c.68-4.57,4.5-8.13,8.64-10.56a38.6,38.6,0,0,1,13.62-4.9c4.77-.66,9.7-.7,13.69,1.11a12.13,12.13,0,0,1,5,3.92,11,11,0,0,1,2.21,5.75C394.76,302.38,391.26,306.33,387.27,308.68Z"/><path class="e" d="M366,345.75c3.76.42,7.48-.32,10.93-.91a101.89,101.89,0,0,0,10.62-2.14c3.48-1,7.3-2.74,9.55-6.23a15.69,15.69,0,0,0,2.23-5.47,45.51,45.51,0,0,0,.86-5.52,76.8,76.8,0,0,0,.38-11.19,3.11,3.11,0,0,0-.09-.6,2.86,2.86,0,1,0-5.55,1.39v.05a47.31,47.31,0,0,1,1.26,10.15c-.07,3.42-.15,7-1.62,9.64s-4.46,4.5-7.74,5.49a72.71,72.71,0,0,1-10.28,2.25c-3.56.62-6.94,1.29-10.3.81a13.57,13.57,0,0,1-8.62-4.34,19.72,19.72,0,0,1-4.74-8.62,21.07,21.07,0,0,1,0-9.64l0-.15a2,2,0,0,0,.06-.35,2.3,2.3,0,1,0-4.59-.42,27.2,27.2,0,0,0,1.27,11.52,23.93,23.93,0,0,0,6.06,9.59A17.23,17.23,0,0,0,366,345.75Z"/><path class="e" d="M405,395.19a12.31,12.31,0,0,0-3.36-2.43,34.69,34.69,0,0,0-7.21-2.61A45.73,45.73,0,0,0,387,388.8c-5-.19-9.91.22-14.65-.37-2.23-.28-4.9-.94-5.48-2.43a4.75,4.75,0,0,1,.21-2.84,5.61,5.61,0,0,1,2-2.33,19.08,19.08,0,0,1,13.3-2.4,19.7,19.7,0,0,1,11.41,6.91l.1.12a1.8,1.8,0,0,0,.19.21,2,2,0,1,0,2.78-3,25.93,25.93,0,0,0-14.07-6.87,24.18,24.18,0,0,0-7.75.39,18.27,18.27,0,0,0-7.26,2.88,7.78,7.78,0,0,0-2.66,3.28,6.62,6.62,0,0,0-.19,4.38,5.43,5.43,0,0,0,3.32,2.94,17.24,17.24,0,0,0,3.81.94c5,.7,10,.37,14.8.63a41.78,41.78,0,0,1,13.56,3.91c2,1.08,3.63,2.74,3.38,4.21-.05,1.26-2.22,2.33-4.38,2.79a35.35,35.35,0,0,1-7,.71c-1.16,0-2.44,0-3.52-.11a12.35,12.35,0,0,1-3.15-.65,26,26,0,0,1-10.87-7.73l-.08-.1-.09-.1a2.46,2.46,0,1,0-3.53,3.43,35.83,35.83,0,0,0,6.16,5A25.43,25.43,0,0,0,384.6,406a16.84,16.84,0,0,0,4.09.61c1.38.05,2.56-.05,3.85-.11a38.44,38.44,0,0,0,7.64-1.13,13.9,13.9,0,0,0,3.84-1.62,5.4,5.4,0,0,0,2.7-4.09A5.91,5.91,0,0,0,405,395.19Z"/><path class="e" d="M380.48,367.48a17.33,17.33,0,0,1,3.23,1.61,78.87,78.87,0,0,1,6.5,4.47l0,0,.15.11a2.44,2.44,0,0,0,2.64-4.1,80.56,80.56,0,0,0-7.27-4.23,20.46,20.46,0,0,0-4.19-1.68c-1.51-.35-2.84-.53-4.22-.72-.66-.09-1.31-.14-2-.22,1.33-.1,2.66-.17,4-.27,3-.26,6.41-.48,9.35-2.32A7.06,7.06,0,0,0,392,356a6.61,6.61,0,0,0,.15-2.72,4.62,4.62,0,0,0-1.15-2.71c-1.63-1.5-3.49-1.54-5.08-1.64a37,37,0,0,0-4.75.26c-3.11.35-6,.75-9.09.85-6.1.29-12.24.37-18.36.37a1.52,1.52,0,0,0-1.5,1.35v.06h0a34,34,0,0,0-.09,6.05,25.93,25.93,0,0,0,1.12,6.06,11.45,11.45,0,0,1,.41,4.78,16.43,16.43,0,0,1-1.31,4.74l-.05.11-.06.14a2.35,2.35,0,0,0,4.39,1.69,20.54,20.54,0,0,0,1.36-6.34,15.37,15.37,0,0,0-1-6.48,26.15,26.15,0,0,1-1.68-9.14c5.64-.27,11.26-.51,16.91-.86,3.09-.15,6.25-.64,9.22-1a35.74,35.74,0,0,1,4.44-.33c1.4,0,2.89.22,3.53.91.57.52.77,2.26.46,3.31a4.86,4.86,0,0,1-2.33,2.85c-2.34,1.48-5.31,1.74-8.36,2-6.08.5-12.22.79-18.34,1h0a1.21,1.21,0,0,0-.15,2.4h.07c5.34.87,10.71,1.77,16,2.86C378,366.83,379.37,367.13,380.48,367.48Z"/><path class="g" d="M36.32,132.66a11.7,11.7,0,0,1-4.86-1.24,19.22,19.22,0,0,1-4.33-3.16,44,44,0,0,1-4.28-4.62,58.73,58.73,0,0,1-3.76-5.34c-1.33-2.08-2.57-4.17-3.68-6.21-1-1.79-2.12-3.85-3.28-6.11q-1.47-2.85-2.5-5t-2.2-4.37a46.92,46.92,0,0,1-3.17-7.45A15.69,15.69,0,0,1,2.8,86.87,11.5,11.5,0,0,1,1.51,80.1a12.66,12.66,0,0,1,2.73-6.34A17.64,17.64,0,0,1,10.15,69a8.55,8.55,0,0,1,3.06-.88,7.31,7.31,0,0,1,3.12.31,3.86,3.86,0,0,1,2.26,1.92,2.49,2.49,0,0,1,0,2.3A3.58,3.58,0,0,1,17,74.28,7.34,7.34,0,0,1,15,75a5.14,5.14,0,0,1-.82.08,2.5,2.5,0,0,1-.69-.09l-1.3.46-.26.13a8.23,8.23,0,0,0-3.12,3,5.21,5.21,0,0,0-.45,1.79,10,10,0,0,0,.06,2.19A12.34,12.34,0,0,0,9,84.75c.35,1,.69,1.78,1,2.47.2.45.62,1.29,1.24,2.5.3.58.8,1.46,1.48,2.6s1.17,2,1.5,2.64a17.84,17.84,0,0,1,1.1,3,18.62,18.62,0,0,0,1,2.77l1,1.87c1.33,2.59,2.83,5.35,4.45,8.18.88,1.6,1.74,3,2.55,4.19s1.82,2.57,3,4.09a24.53,24.53,0,0,0,2.91,3.19,20.22,20.22,0,0,0,3.13,2.27,6.25,6.25,0,0,0,3.15.94,5.79,5.79,0,0,0,2.62-.67A6.38,6.38,0,0,0,41.34,122c1-1.8,1.79-2.81,2.56-3.2a3.42,3.42,0,0,1,1.62-.37,6.32,6.32,0,0,1,1.86.32l.31.1.15.29a6.84,6.84,0,0,1,.8,3.21,6.71,6.71,0,0,1-.7,3,10.55,10.55,0,0,1-1.79,2.48A15.84,15.84,0,0,1,43.79,130a22.26,22.26,0,0,1-2.55,1.56,10.1,10.1,0,0,1-4.63,1.15Z"/><path class="g" d="M56.82,122.45c-1.2,0-2.32-.85-3.44-2.59a43.41,43.41,0,0,1-3.86-8c-.59-1.51-1.41-3.74-2.44-6.63s-1.75-4.83-2.16-5.87c-.21-.55-.39-1-.52-1.46L44,96.83a5.74,5.74,0,0,0-.7-1.43l-.08-.1-.2-.52-.51-1.65-1-3.29c-.88-2.23-2.17-5.27-3.84-9s-3-6.81-3.87-9.11a3.36,3.36,0,0,1,0-2.53,3.09,3.09,0,0,1,1.79-1.82,3.22,3.22,0,0,1,1.16-.22c1.73,0,3.15,1.47,4.34,4.51,1.07,2.75,2.32,6.09,3.81,10.23,1.34,3.74,2.55,7,3.57,9.64a23.25,23.25,0,0,0,3.82-1.21l2.4-.93c0-.09-.06-.19-.11-.31-1.07-2.75-2.76-6.56-5-11.32-2.44-5.17-4.16-9-5.09-11.4a2.88,2.88,0,0,1,.13-2.45,3.35,3.35,0,0,1,1.83-1.64A4.77,4.77,0,0,1,48.08,62h1.06a1.47,1.47,0,0,1,1,.78c.08.18.28.74.28.74C53,70.2,57,79.45,62.89,93.08l8.78,20.27a3.14,3.14,0,0,1-.17,2.82A4.11,4.11,0,0,1,69.37,118a2,2,0,0,1-.71.14c-1.53,0-3.86-1.47-8.32-12.9L59,101.63c-.08-.3-.21-.66-.4-1.16l-1.53-4a6.58,6.58,0,0,1-.28-.87c-.21-.64-.37-1.11-.46-1.37l-.09,0-.12-.05a7.82,7.82,0,0,1-1,.48,16.08,16.08,0,0,1-2.92.71c-.7.12-1.32.25-1.86.38l3.33,8.53c.56,1.43,1.51,3.64,2.83,6.55s2.29,5.15,2.88,6.67a4.59,4.59,0,0,1,.23,2.81,2.94,2.94,0,0,1-1.84,2A2.56,2.56,0,0,1,56.82,122.45Z"/><path class="g" d="M79.56,113.58c-2.27,0-3.06-1-3.32-1.85-.33-1-.44-2.88,2.41-3.78a9.46,9.46,0,0,1,1.06-.28l.81-.17c.17-.06.19-.14.2-.17a2.45,2.45,0,0,0-.19-1.16c-.42-1.32-.77-2.34-1.06-3s-.49-1.19-.54-1.33c-1-2.38-2-4.73-2.8-6.91C73,86.73,70.69,80.32,69.28,75.83l-2.52-8.58c-.4-1.27-.83-2.48-1.28-3.62a5.69,5.69,0,0,1-1.23.55,3.67,3.67,0,0,1-1.08.19,2.55,2.55,0,0,1-2.49-2.08,3,3,0,0,1,.83-2.87,11,11,0,0,1,3.05-2.3,37,37,0,0,1,5.85-2.52,3.35,3.35,0,0,1,1-.16,3.48,3.48,0,0,1,1.46.33,3,3,0,0,1,1.66,1.85,3.34,3.34,0,0,1-.08,2.27,2.61,2.61,0,0,1-1.69,1.58c-.36.11-.67.19-.92.24l-.56.18c-.51.16-.63.33-.64.36s-.1.2.11.86c1.77,5.62,4.68,13.7,8.67,24,1.3,3.37,2.47,6.31,3.47,8.74q.8,2,1.44,3.66c.44,1.16.9,2.5,1.37,4l.75,2.38c.31-.12.63-.24,1-.34a6.45,6.45,0,0,1,1.92-.33,3.43,3.43,0,0,1,3.45,2.69l.28.89s.56,1.53-2,2.58c-.59.24-2.39.85-2.39.85-1.3.5-2.46.91-3.45,1.22A20,20,0,0,1,79.56,113.58Z"/><path class="g" d="M101,109.09a3.15,3.15,0,0,1-1.91-.7,3.75,3.75,0,0,1-1.46-2.19c-1.05-4.51-2.35-11-3.88-19.21S91,72.38,89.92,67.89l-.14-.63c-1.14-3.41-1.93-6.08-2.35-7.87-.5-2.18-2-8.83,1.68-9.69a2.71,2.71,0,0,1,.69-.08,3.07,3.07,0,0,1,1.56.44,2.86,2.86,0,0,1,1.35,1.85,26.16,26.16,0,0,1,.47,3.42,23.92,23.92,0,0,0,.45,3.2c.52,2.27,1.36,5.7,2.48,10.19s1.63,6.49,2.17,8.8c0,0,.21.85.26,1.14a6.77,6.77,0,0,1,0,1.13,8.59,8.59,0,0,0,.38,2.84l.24,1c.43,1.87.9,4.16,1.4,6.81s1,4.94,1.4,6.83c.49,2.12,1.39,4.66,2.89,4.66a1.74,1.74,0,0,0,.39,0l1.52-.44c.54-.15,1.2-.32,2-.5a11.14,11.14,0,0,1,2.55-.34c2.48,0,3.3,1.29,3.55,2.36a2.75,2.75,0,0,1-.57,2.34,4.35,4.35,0,0,1-2,1.42l-.16.06H112c-.45,0-.92-.06-1.4-.06a12.11,12.11,0,0,0-5.83,1.06,13.4,13.4,0,0,1-3.1,1.21A3.47,3.47,0,0,1,101,109.09Z"/><path class="g" d="M122.29,104.65a3,3,0,0,1-2.13-.93,3.73,3.73,0,0,1-1.2-2.35c-.52-4.58-1.08-11.15-1.66-19.52S116.18,67,115.65,62.43l-.07-.63c-.74-3.52-1.22-6.27-1.43-8.09-.25-2.23-1-9,2.77-9.44a2.17,2.17,0,0,1,.36,0,2.92,2.92,0,0,1,1.83.64,2.85,2.85,0,0,1,1.13,2,25.27,25.27,0,0,1,.09,3.46,24,24,0,0,0,.07,3.23c.26,2.31.69,5.71,1.31,10.41s.65,4.77.92,7.12l.09,2.39s-.07,1.16,0,1.54c.11.88.06,1.56.24,3.09l.12,1.06c.21,1.88.42,4.21.61,6.92s.4,5,.62,7c.26,2.26.9,5,2.52,5H127l1.56-.26c.55-.09,1.23-.18,2-.28a15.19,15.19,0,0,1,1.57-.09c3.26,0,4.12,1.52,4.26,2.8a2.72,2.72,0,0,1-.83,2.26,4.36,4.36,0,0,1-2.14,1.19l-.17,0-.17,0a20.51,20.51,0,0,0-3.93-.35,8.38,8.38,0,0,0-3.23.41,14.15,14.15,0,0,1-3.35,1Z"/><path class="g" d="M145.47,101.9c-4.06,0-6.47-.6-7.6-1.76a2.43,2.43,0,0,1-.71-1.73c0-1,.47-2.84,3.39-2.84.51,0,.88,0,1.18.06l.82.1c.18,0,.23-.07.24-.1a2.32,2.32,0,0,0,.18-1.16c0-1.4,0-2.48-.06-3.22s-.1-1.29-.1-1.44c-.22-2.6-.39-5.12-.51-7.43-.44-8.71-.63-15.52-.58-20.25L142,53.2c0-1.34,0-2.63-.09-3.84a6.75,6.75,0,0,1-1.28.14,2.87,2.87,0,0,1-2.16-.78,3,3,0,0,1,1-4.6,10.6,10.6,0,0,1,3.62-1.23,36.67,36.67,0,0,1,6.06-.59h.28a3.34,3.34,0,0,1,2.31.93,3,3,0,0,1,1,2.28,3.31,3.31,0,0,1-.78,2.14,2.62,2.62,0,0,1-2.06,1c-.41,0-.73,0-1-.06h-.59a1.15,1.15,0,0,0-.72.15s-.16.16-.17.85c-.07,5.86.19,14.45.77,25.53.19,3.61.38,6.76.58,9.39.1,1.4.17,2.71.23,3.93s.08,2.63.06,4.21l0,2.49c.29,0,.57,0,.85,0H150a4.88,4.88,0,0,1,3.22,1A3.62,3.62,0,0,1,154.4,99v.92s0,1.89-2.73,1.83c-.63,0-2.53.07-2.53.07-1.18.05-2.25.08-3.17.08Z"/><path class="g" d="M183.1,106.35l-.33,0a4.87,4.87,0,0,1-1.45-.17,3.68,3.68,0,0,1-.64-.93,5,5,0,0,1-.72-2.39c-.11-1-.21-1.38-.24-1.58s0-.26,0-.32a2.2,2.2,0,0,1,0-.29v-.12c.1-.85-.09-3.41-1.6-10.81-1.23-6-2.71-12.63-4.4-19.58-1.13-4.68-2.11-8.54-2.92-11.53L166.13,98.2l.19.44a3.64,3.64,0,0,1,.43,1.9,3.44,3.44,0,0,1-1.29,2.34,3.34,3.34,0,0,1-2.13.78l-.4,0c-1.65-.2-3.5-1.49-2.9-6.52l3.35-29.77c.22-1.84.63-4.57,1.22-8.11s1-6.25,1.21-8c.35-3,1.29-4.88,3.81-6.31a4.17,4.17,0,0,1,.95-.21,1.82,1.82,0,0,1,.79.24c1.71.33,3.18,2.85,4.78,8.13a126,126,0,0,1,3,12.56c.85,4.46,1.81,10,2.84,16.52l.75,4.6q.63,4,1.07,6.53c2.28-11.29,4.34-24.7,6.15-39.93,0-.38.07-.74.09-1.09l.05-1.2c.32-2.71,1.94-3.11,2.88-3.11l.47,0a2.88,2.88,0,0,1,2.32,1.63,5.1,5.1,0,0,1,.42,2.93l-.77,6.57c-.66,5.08-1.55,11.19-2.65,18.16s-2.22,13.27-3.33,18.67c-1.54,7.48-2.36,9.15-2.84,9.75l-.19.23-.29,0A20.91,20.91,0,0,1,183.1,106.35Z"/><path class="g" d="M202,63l-.24,0h-.11l-.1,0c-.59-.23-1.27-.85-1.11-2.5a34.31,34.31,0,0,1,1.61-6.3,52.7,52.7,0,0,1,3.45-8.31c1.57-3.07,3-4.5,4.58-4.5h.23a2.21,2.21,0,0,1,1.59.77,2.9,2.9,0,0,1,.51,2.15,31.2,31.2,0,0,1-2.11,8.23,31.1,31.1,0,0,1-4,7.42C204.75,62,203.35,63,202,63Z"/><path class="a" d="M232.2,108.9a1.87,1.87,0,0,1-.79-1.67,50.48,50.48,0,0,0-1-6.66l-.31-1.39-6.5-.7a46.22,46.22,0,0,0-.84,6.13c-.19,2.16-.54,3.6-1.07,4.3a1.66,1.66,0,0,1-1.32.7,2.3,2.3,0,0,1-1.46-.45,1.54,1.54,0,0,1-.69-1.22,1.34,1.34,0,0,1,.08-.33l.06-.25a282.22,282.22,0,0,0,5.18-33.48c0-.95.08-1.83.11-2.67a37.72,37.72,0,0,1,.26-3.9,5.67,5.67,0,0,1,.67-2.23L226.8,65a2.86,2.86,0,0,1,1.62.37,1.39,1.39,0,0,1,.69,1.2,120.39,120.39,0,0,0,2,14.76A126.1,126.1,0,0,1,233,95.4a10.52,10.52,0,0,0,.43,2,10.59,10.59,0,0,1,.44,2,29.59,29.59,0,0,0,.8,3.87,26.5,26.5,0,0,1,.78,4v.06a1.76,1.76,0,0,1-1,1.9A3.92,3.92,0,0,1,232.2,108.9Zm-2.89-14.47c-.09-2.06-.27-4.23-.53-6.49s-.65-5.11-1.16-8.53q-.6-3.85-1-6.75Q224.35,89.22,223.76,96c.75.44,2.69.71,5.84.82A12.33,12.33,0,0,1,229.31,94.43Z"/><path class="a" d="M266,103.46l-.48-.33a3.18,3.18,0,0,1-.95-1.25,8.26,8.26,0,0,0-.7-1.14v-.14l0-.15c-.25-1-1.64-3.4-4.15-7.29s-5.33-8-8.44-12.49-5.44-7.65-7-9.63L252.61,103l.36.37a2.3,2.3,0,0,1,.68.94,2,2,0,0,1-.21,1.55,1.92,1.92,0,0,1-1.19.94q-2.08.54-3.09-3.33l-2.9-10.86-2.9-10.86q-.53-2-1.36-6t-1.36-6a4.29,4.29,0,0,1,1-4.55l.26-.33a.91.91,0,0,1,.43-.28q1.49-.39,5.05,4.14,2.78,3.55,5.52,7.89t6.49,10.75l1.78,3q3.33,5.69,4.11,6.77Q263,83.44,258.1,64.69a6.71,6.71,0,0,0-.25-.83l-.28-.85c-.33-1.26,0-2,1.08-2.3a1.56,1.56,0,0,1,1.52.36,3.33,3.33,0,0,1,.93,1.65l1.25,4.8q1.39,5.63,3.11,13.38t2.77,13.92q1.06,6.17.7,7.32a12.77,12.77,0,0,1-2.09,1.11Z"/><path class="a" d="M281.13,88.63q-1.28-3.24-3.69-9.66t-3.67-9.64c-.52-1.31-1.42-3.27-2.72-5.88s-2.12-4.36-2.5-5.31a2,2,0,0,1,.13-1.65,2.32,2.32,0,0,1,1.24-1.19,10,10,0,0,1,4.49-.65A12.63,12.63,0,0,1,279,55.91a19.11,19.11,0,0,1,4.1,2.75,21.25,21.25,0,0,1,3.39,3.71,20,20,0,0,1,2.33,4.28l.51,1.48.57,1.64,1.32,3.36c.54,1.38,1,2.49,1.26,3.35s.59,1.82.88,2.9a20.45,20.45,0,0,1,.62,3.08,19,19,0,0,1,.1,3,12.55,12.55,0,0,1-.48,2.95,16.33,16.33,0,0,1-1.23,3,17.76,17.76,0,0,1-2.11,3L285.81,96Q284.25,96.63,281.13,88.63Zm8.15,1.69a6.27,6.27,0,0,0,1.09-2.42,12.72,12.72,0,0,0,.18-2.87,23.72,23.72,0,0,0-.35-3.26c-.18-.93-.42-2-.72-3s-.57-2-.83-2.84c-.17-.48-.44-1.19-.8-2.13q-7.23-18.42-14.65-16.47a39.63,39.63,0,0,0,2.05,6.52q1.86,4.77,5.75,13.29,4,8.8,5.73,13.3l.58,1.46A4.4,4.4,0,0,0,289.28,90.32Z"/><path class="g" d="M330.35,78.84a12.12,12.12,0,0,1-4-.65,13.31,13.31,0,0,1-3.76-2,26.09,26.09,0,0,1-6.51-6.75c-1-1.46-1.92-2.92-2.72-4.33-.68-1.17-1.44-2.6-2.27-4.25s-1.49-3.05-1.94-4.13c-.3-.66-.81-1.85-1.55-3.61l-1.15-2.76c-.39-.87-.85-1.93-1.37-3.17-1.08-2.58-2.16-5.43-3.22-8.48a53.91,53.91,0,0,1-2.25-9.11,32.36,32.36,0,0,1-.39-4.52A19.33,19.33,0,0,1,299.7,21a13.53,13.53,0,0,1,1.35-3.81A12.06,12.06,0,0,1,303.58,14a13.51,13.51,0,0,1,3.8-2.33,6.59,6.59,0,0,1,2.5-.59,2.9,2.9,0,0,1,2.84,1.9,2.7,2.7,0,0,1-.09,2.29A3.21,3.21,0,0,1,311,16.8a6.52,6.52,0,0,1-1.39.33,5.14,5.14,0,0,0-1.09.25,3.89,3.89,0,0,0-2,1.73,6.82,6.82,0,0,0-.81,3.19,33.94,33.94,0,0,0,.12,4.52,27,27,0,0,0,.92,4.78c.61,2.37,1.1,4.18,1.51,5.55s.95,3,1.58,4.6c.91,2.49,1.93,5.07,3,7.69l.92,2.2c.29.77.67,1.7,1.13,2.82.68,1.61,1.28,3,1.79,4.12s1.17,2.4,1.92,3.77a39,39,0,0,0,2.41,4,29.61,29.61,0,0,0,2.62,3.2,11.05,11.05,0,0,0,2.88,2.36,8,8,0,0,0,3.08.9,5.43,5.43,0,0,0,.69,0,7,7,0,0,0,2.63-.55,6.74,6.74,0,0,0,4-5.07,55.13,55.13,0,0,0-2.51-5,14.81,14.81,0,0,0-1.92-2.82l-.7.4a14.76,14.76,0,0,1-1.91,1,5.1,5.1,0,0,1-1.95.45,2.9,2.9,0,0,1-2.79-2,2.47,2.47,0,0,1,.34-2.4,7.08,7.08,0,0,1,2-2,22.28,22.28,0,0,1,4-2.27,4.36,4.36,0,0,1,1.69-.36,3.88,3.88,0,0,1,2,.58,6.19,6.19,0,0,1,2.51,3.06,49.56,49.56,0,0,0,3.78,6.75,54.22,54.22,0,0,1,3.84,7,3.28,3.28,0,0,1,.13,2.36,2.77,2.77,0,0,1-1.6,1.7,4.56,4.56,0,0,1-1.74.38,3.25,3.25,0,0,1-1.94-.64c-.2.23-.46.56-.82,1a15.73,15.73,0,0,1-1.94,2.12,7.09,7.09,0,0,1-2,1.24,13,13,0,0,1-4.61,1Z"/><path class="g" d="M350.64,67.61l-1.93-5.84c-1.59-4.62-4.44-12.12-8.46-22.28-4-9.9-6.84-17.43-8.55-22.38a6.11,6.11,0,0,1-.34-3.65,3.28,3.28,0,0,1,2.22-2.21,14.86,14.86,0,0,1,4.84-.86c.36,0,.71,0,1.06,0a9.72,9.72,0,0,1,5.09,1.88,9.44,9.44,0,0,1,3.23,4.61l2,5.81a11.92,11.92,0,0,1,.54,3.11,23.39,23.39,0,0,1,0,3.13l-.55,3.59-.41,2.59,4.15,7.09c2.16,3.83,4.08,7,5.71,9.37a49.65,49.65,0,0,0,5.07,6.32l.88.85a12,12,0,0,1,1.2,1.28,4.37,4.37,0,0,1,.73,1.31,3.17,3.17,0,0,1,0,2.23,2.58,2.58,0,0,1-1.6,1.51,2.36,2.36,0,0,1-.8.14c-1.34,0-2.89-1.06-4.74-3.22a52.8,52.8,0,0,1-5.71-8l-1.52-2.59c-3.69-6.34-5.67-9.54-6.72-11.12.33,1,.64,1.91.92,2.77q.63,2,1.53,4.56c2.48,7.2,5,12.75,7.44,16.51l.14.22s.3,2.66-.21,3.33a4.73,4.73,0,0,1-3.13,1.08A7.58,7.58,0,0,1,350.64,67.61ZM337.46,15.06a1.38,1.38,0,0,0,0,.41c.95,2.75,2.13,6,3.52,9.69,1.1,2.9,2,5.44,2.8,7.58a10.13,10.13,0,0,0,.29-1.7,23.54,23.54,0,0,0-.14-5.26,24.76,24.76,0,0,0-1.06-4.86,25.45,25.45,0,0,0-1-2.48,16.78,16.78,0,0,0-1.23-2.09,3.35,3.35,0,0,0-1.64-1.23,3.24,3.24,0,0,0-.89-.13A3.46,3.46,0,0,0,337.46,15.06Z"/><path class="g" d="M372.48,61.32c-2.65,0-4.13-.79-4.41-2.34a2.64,2.64,0,0,1,.56-2.32A3.91,3.91,0,0,1,371,55.54c.42-.07.78-.12,1.09-.15l.82,0c.17,0,.21-.12.22-.15A2.38,2.38,0,0,0,373,54c-.24-1.36-.47-2.42-.66-3.15s-.34-1.25-.37-1.4c-.69-2.49-1.34-4.94-1.88-7.2-2.06-8.48-3.53-15.13-4.36-19.79l-1.4-8.83c-.23-1.31-.5-2.57-.8-3.75a5.87,5.87,0,0,1-1.29.39,4.53,4.53,0,0,1-.71.06A2.51,2.51,0,0,1,359,8a2.94,2.94,0,0,1,1.19-2.73,10.5,10.5,0,0,1,3.32-1.89,36.82,36.82,0,0,1,6.12-1.76,4.46,4.46,0,0,1,.63-.05,3.36,3.36,0,0,1,1.82.54,3,3,0,0,1,1.41,2.05,3.33,3.33,0,0,1-.37,2.24,2.62,2.62,0,0,1-1.88,1.35c-.37.06-.69.1-.94.12l-.58.1c-.53.1-.66.25-.68.28s-.13.19,0,.87c1,5.79,2.89,14.18,5.52,24.94.86,3.49,1.63,6.56,2.32,9.11.36,1.36.68,2.64,1,3.82s.57,2.59.85,4.12l.43,2.46c.33-.08.66-.16,1-.21a6.71,6.71,0,0,1,1.29-.13,3.51,3.51,0,0,1,3.73,3.15l.17.92-2.34,2.3-2.48.54c-1.33.32-2.54.58-3.58.76A25.82,25.82,0,0,1,372.48,61.32Z"/><path class="g" d="M401.38,61a24.61,24.61,0,0,0-7.33-1.19,6.47,6.47,0,0,1-3,.73h-.2a3,3,0,0,1-2.3-1.24,3.81,3.81,0,0,1-.87-2.49c.13-4.64.49-11.22,1.08-19.57s.95-14.82,1.08-19.46v-.64c-.24-3.58-.34-6.37-.29-8.2.06-2.22.24-9,4-9a3,3,0,0,1,2.16.92,2.8,2.8,0,0,1,.84,2.13,25.54,25.54,0,0,1-.39,3.43,23.81,23.81,0,0,0-.38,3.21c-.06,2.3-.11,5.82-.15,10.48s-.06,6.9-.12,9.19l0,1.18s0,1.18-.08,1.57,0,.73-.16,2.24c0,.28-.27,2-.36,2.81-.2,1.91-.21,2.5-.4,5.2s-.3,5-.36,7c-.09,3.47.59,5.25,2,5.29l1.59,0h2c4.53.13,5.44,2,5.4,3.5A2.76,2.76,0,0,1,404,60.19a4.46,4.46,0,0,1-2.28.88h-.18Z"/><path class="g" d="M418.74,37.26l-.22,1c-.39,1.84-.94,4.12-1.61,6.76s-1.21,4.86-1.62,6.78a10.22,10.22,0,0,0-.22,4.22c.26,1,.8,1.26,1.25,1.35l1.56.25c.55.08,1.22.21,2,.38a8.36,8.36,0,0,1,3.66,1.53,2.87,2.87,0,0,1,1,2.88,2.73,2.73,0,0,1-1.51,1.88,4.3,4.3,0,0,1-2,.47l-.43,0-.17,0-.15-.08a25,25,0,0,0-7-2.49,6.76,6.76,0,0,1-1.89.28,6.22,6.22,0,0,1-1.41-.16,3,3,0,0,1-2-1.63,3.82,3.82,0,0,1-.39-2.61c1-4.54,2.51-11,4.61-19s3.62-14.43,4.58-18.93l.13-.63c.41-3.56.82-6.32,1.2-8.13,1.18-5.55,2.78-8.14,5-8.14a2.38,2.38,0,0,1,.59.07,2.9,2.9,0,0,1,1.88,1.27,2.83,2.83,0,0,1,.44,2.25,24.79,24.79,0,0,1-1,3.3,23.39,23.39,0,0,0-.95,3.09c-.49,2.31-1.18,5.77-2.05,10.29Z"/><path class="g" d="M437.07,70.5c-1.34-.35-2.53-.69-3.52-1-3.41-1.12-7.83-2.93-6.88-5.82a2.6,2.6,0,0,1,2.6-2,5.26,5.26,0,0,1,1.56.28,8.73,8.73,0,0,1,1,.39l.75.33.15,0a.14.14,0,0,0,.11,0s.25-.21.52-1.05c.43-1.32.74-2.36.91-3.09s.29-1.26.34-1.41c.57-2.57,1.16-5,1.74-7.23,2.19-8.44,4-15,5.51-19.5L444.83,22c.41-1.26.77-2.5,1.07-3.69a6.12,6.12,0,0,1-1.33-.27,2.86,2.86,0,0,1-1.76-1.37,2.95,2.95,0,0,1,2.3-4.09,8.62,8.62,0,0,1,2-.22,14.25,14.25,0,0,1,1.78.12,36.18,36.18,0,0,1,6.23,1.35,3.34,3.34,0,0,1,1.93,1.59,3,3,0,0,1,.26,2.47,3.29,3.29,0,0,1-1.38,1.8,2.64,2.64,0,0,1-1.44.44,2.85,2.85,0,0,1-.85-.14,7.9,7.9,0,0,1-.89-.35l-.55-.17a1.9,1.9,0,0,0-.56-.11.42.42,0,0,0-.18,0s-.2.11-.41.76c-1.83,5.58-4.15,13.85-6.92,24.6-.89,3.45-1.65,6.52-2.26,9.12-.33,1.37-.65,2.64-1,3.82s-.72,2.55-1.2,4L439,64.07c.33.08.65.18,1,.28,3.65,1.2,3.45,3.67,3,5l-.29.88s-.39,1.67-3.15.93C438.89,71,437.07,70.5,437.07,70.5Z"/><path class="g" d="M472.88,81a11.7,11.7,0,0,1-2.92-.19l-1.4-.41-.49-1a5.15,5.15,0,0,1-.31-2.49,10.09,10.09,0,0,0,0-1.61l0-.27.18-.31,0-.11c.24-.82.47-3.39.19-10.93-.22-6.13-.6-12.88-1.13-20q-.53-7.2-1-11.86L454.87,70l.12.47a3.62,3.62,0,0,1,.11,1.95,3.43,3.43,0,0,1-1.66,2.09,3.37,3.37,0,0,1-1.69.47,3.33,3.33,0,0,1-.93-.14c-2.32-.67-2.92-3-1.79-6.89l8.19-28.83c.5-1.75,1.35-4.37,2.53-7.8s2-6,2.5-7.72c.84-2.87,2-4.22,4.7-5.22a7.12,7.12,0,0,1,1.15-.21,4.16,4.16,0,0,1,.66.14c1.62.6,2.67,3.33,3.38,8.8A128.65,128.65,0,0,1,473.08,40c.11,4.56.14,10.2.09,16.77l0,4.66c0,2.91,0,5,0,6.61,4.1-10.77,8.33-23.66,12.61-38.38.1-.36.19-.72.26-1.06l.25-1.18c.64-2.19,1.89-2.63,2.83-2.63a3.49,3.49,0,0,1,1,.15,2.83,2.83,0,0,1,2,2,5.17,5.17,0,0,1-.06,3l-1.84,6.36c-1.5,4.94-3.37,10.82-5.59,17.48s-4.36,12.7-6.34,17.87c-2.74,7.13-3.83,8.64-4.4,9.15l-.22.2Z"/><path class="g" d="M503.1,39.76c-.61-.17-1.35-.71-1.37-2.37a34.32,34.32,0,0,1,.91-6.43,53.42,53.42,0,0,1,2.53-8.64c1.28-3.38,2.65-5,4.29-5h0c.75,0,2.37.26,2.4,2.68a30.48,30.48,0,0,1-1.2,8.41,31.24,31.24,0,0,1-3.18,7.82c-1.41,2.36-2.78,3.52-4.17,3.54h-.1Z"/><path class="g" d="M502.51,37.38a35.41,35.41,0,0,1,.9-6.26,53.85,53.85,0,0,1,2.49-8.51c1.13-3,2.32-4.47,3.57-4.49,1.06,0,1.59.62,1.61,1.9a30,30,0,0,1-1.17,8.19,30.24,30.24,0,0,1-3.11,7.62c-1.25,2.1-2.42,3.15-3.5,3.17C502.79,38.86,502.53,38.32,502.51,37.38Z"/></svg>